<svg width="300" height="300" viewBox="0 0 300 300" fill="none" xmlns="http://www.w3.org/2000/svg">
<path fill-rule="evenodd" clip-rule="evenodd" d="M139.453 0C146.094 0 152.734 0 159.375 0C159.375 46.875 159.375 93.75 159.375 140.625C206.25 140.625 253.125 140.625 300 140.625C300 147.266 300 153.906 300 160.547C253.125 160.547 206.25 160.547 159.375 160.547C159.375 207.032 159.375 253.515 159.375 300C152.734 300 146.094 300 139.453 300C139.453 253.515 139.453 207.032 139.453 160.547C92.9684 160.547 46.4848 160.547 0 160.547C0 153.906 0 147.266 0 140.625C46.4848 140.625 92.9684 140.625 139.453 140.625C139.453 93.75 139.453 46.875 139.453 0Z" fill=""/>
</svg>
