<svg width="300" height="300" viewBox="0 0 300 300" fill="none" xmlns="http://www.w3.org/2000/svg">
<path opacity="0.984" fill-rule="evenodd" clip-rule="evenodd" d="M89.0625 0C156.445 0 223.828 0 291.211 0C295.508 1.5625 298.437 4.49219 300 8.78906C300 76.1719 300 143.555 300 210.938C295.4 219.664 288.564 221.911 279.492 217.676C277.008 215.537 275.348 212.9 274.512 209.766C274.317 154.688 274.121 99.6094 273.926 44.5312C189.453 129.004 104.981 213.476 20.5078 297.949C19.2027 298.501 18.0308 299.184 16.9922 300C14.2578 300 11.5235 300 8.78906 300C4.49219 298.437 1.5625 295.508 0 291.211C0 288.476 0 285.742 0 283.008C0.815811 281.969 1.4994 280.797 2.05078 279.492C86.5236 195.019 170.996 110.547 255.469 26.0742C200.391 25.8789 145.312 25.6836 90.2344 25.4883C82.3072 23.0217 79.0846 17.6505 80.5664 9.375C82.1051 5.00732 84.9375 1.88232 89.0625 0Z" fill=""/>
</svg>
