<svg width="300" height="301" viewBox="0 0 300 301" fill="none" xmlns="http://www.w3.org/2000/svg">
<path d="M136.493 0.5991C118.606 2.2998 98.6085 7.98836 83.1262 15.7881C58.1435 28.3968 36.3276 48.5706 21.7837 72.4391C16.6229 81.0012 14.1012 86.0447 10.2306 95.8384C-6.95233 139.236 -2.31938 189.142 22.8393 230.898C40.1395 259.634 67.5853 283.092 97.4942 294.645C102.948 296.756 106.056 297.811 113.739 299.981C114.736 300.275 114.794 298.808 114.794 275.409V250.544L112.331 251.013C101.951 253.007 89.108 249.078 81.6015 241.63C79.6662 239.694 76.7339 236.234 75.1505 233.83C73.5671 231.484 71.104 228.259 69.6379 226.675C66.9402 223.743 62.2486 221.045 59.8442 221.045C59.0818 221.045 58.4954 220.693 58.4954 220.283C58.4367 219.931 58.0849 215.943 57.733 211.486L56.9706 203.452H59.6683C63.187 203.452 68.2891 204.801 72.1596 206.736C78.8452 210.137 83.7127 214.946 90.0463 224.329C92.6853 228.317 94.9725 230.428 98.6085 232.305C101.482 233.83 108.285 234.123 112.566 232.833C115.264 232.071 115.322 231.953 115.967 229.021C116.788 224.974 119.369 219.696 122.653 215.122C124.119 213.07 125.351 211.252 125.351 211.017C125.351 210.841 122.887 210.196 119.955 209.668C113.563 208.437 101.951 204.683 96.9078 202.162C84.0059 195.652 74.5641 186.621 68.2304 174.657C59.7856 158.706 58.6127 139.118 65.0636 120.762C67.4094 114.253 69.1101 110.91 73.0393 105.28L76.2648 100.589L75.2678 96.4835C72.9807 87.1003 73.4498 75.6059 76.4994 66.0468C77.8482 61.6484 77.9655 61.4725 79.4902 61.7657C80.3699 61.9416 82.6571 62.2349 84.5924 62.4695C90.9846 63.1732 97.9634 66.1054 109.634 73.0842C116.964 77.4239 116.143 77.3066 126.523 75.0781C142.944 71.5594 161.359 71.9699 179.656 76.3683L183.292 77.248L188.746 74.0225C201.941 66.2227 209.975 63.0559 219.3 61.883L222.056 61.5311L223.522 66.1054C226.513 75.5473 226.982 87.0417 224.695 96.4248L223.757 100.53L227.099 105.808C236.248 120.235 239.298 129.794 239.298 143.927C239.298 169.32 226.044 190.55 203.055 202.162C198.012 204.683 186.4 208.437 180.066 209.668C177.075 210.196 174.612 210.841 174.612 211.017C174.612 211.252 175.961 213.245 177.603 215.474C179.304 217.761 181.239 220.928 182.06 222.629C184.992 228.962 185.168 231.132 185.168 266.964C185.168 298.398 185.227 300.275 186.224 299.981C193.906 297.811 197.015 296.756 202.469 294.645C236.6 281.508 266.216 253.945 283.223 219.638C303.045 179.701 305.39 135.424 289.791 96.0143C285.862 86.0447 283.399 81.0012 278.179 72.4391C265.688 51.9134 248.153 34.3786 227.627 21.8872C219.065 16.7264 214.022 14.2047 204.169 10.3342C183.116 2.00658 158.72 -1.51212 136.493 0.5991Z" fill=""/>
</svg>
