<svg width="300" height="300" viewBox="0 0 300 300" fill="none" xmlns="http://www.w3.org/2000/svg">
<path opacity="0.993" fill-rule="evenodd" clip-rule="evenodd" d="M136.523 0C145.508 0 154.492 0 163.477 0C221.936 7.58707 263.636 38.0558 288.574 91.4062C294.513 105.984 298.322 121.023 300 136.523C300 145.508 300 154.492 300 163.477C292.413 221.936 261.944 263.636 208.594 288.574C194.017 294.513 178.978 298.322 163.477 300C154.492 300 145.508 300 136.523 300C78.0627 292.412 36.3636 261.943 11.4258 208.594C5.48667 194.016 1.67808 178.977 0 163.477C0 154.492 0 145.508 0 136.523C7.58707 78.0639 38.0558 36.3646 91.4062 11.4258C105.984 5.48667 121.023 1.67808 136.523 0ZM148.242 72.0703C155.533 72.143 160.123 75.6586 162.012 82.6172C162.305 100.976 162.403 119.335 162.305 137.695C180.665 137.597 199.024 137.695 217.383 137.988C225.632 140.323 228.854 145.695 227.051 154.102C225.265 158.465 222.042 161.102 217.383 162.012C199.024 162.305 180.665 162.403 162.305 162.305C162.403 180.665 162.305 199.024 162.012 217.383C159.677 225.632 154.305 228.854 145.898 227.051C141.535 225.265 138.898 222.042 137.988 217.383C137.695 199.024 137.597 180.665 137.695 162.305C119.335 162.403 100.976 162.305 82.6172 162.012C74.3684 159.677 71.1457 154.305 72.9492 145.898C74.7352 141.535 77.9578 138.898 82.6172 137.988C100.976 137.695 119.335 137.597 137.695 137.695C137.597 119.335 137.695 100.976 137.988 82.6172C139.168 76.848 142.586 73.3324 148.242 72.0703Z" fill=""/>
</svg>
