<svg width="12" height="12" viewBox="0 0 12 12" fill="none" xmlns="http://www.w3.org/2000/svg">
<path d="M6.76706 11.9681C8.78303 11.6981 10.5132 10.4608 11.3941 8.665C11.6746 8.08826 11.8424 7.57182 11.9499 6.92692C12.018 6.52844 12.018 5.47983 11.9499 5.08135C11.8424 4.43907 11.6772 3.92525 11.3941 3.34327C10.5814 1.68121 8.998 0.467432 7.1734 0.10828C6.30043 -0.06212 5.32259 -0.0306615 4.44962 0.197413C3.07593 0.556564 1.81759 1.45838 1.01015 2.66691C-0.11187 4.3447 -0.31373 6.51271 0.477977 8.35566C1.28541 10.2432 2.9632 11.5723 4.98441 11.9288C5.40648 12.0048 6.34761 12.0232 6.76706 11.9681ZM5.40386 11.1397C4.79566 11.0663 4.29232 10.9143 3.73918 10.6443C2.22917 9.90237 1.2225 8.56276 0.905289 6.86924C0.847615 6.56514 0.826642 5.76033 0.865965 5.43526C0.939369 4.83755 1.09404 4.30275 1.34309 3.78106C2.10858 2.16619 3.6448 1.07563 5.44056 0.863285C5.77088 0.823962 6.57045 0.847556 6.87192 0.902608C8.00443 1.11495 8.93246 1.6078 9.72154 2.41524C10.1331 2.83731 10.3796 3.19122 10.6469 3.7365C11.014 4.48364 11.1713 5.16786 11.1713 6.00413C11.1713 6.84303 11.0113 7.52987 10.6469 8.27177C10.1226 9.33874 9.34404 10.1173 8.27445 10.6443C7.73966 10.9064 7.21272 11.0663 6.63598 11.1397C6.38432 11.1712 5.65815 11.1738 5.40386 11.1397Z" fill=""/>
<path d="M6.13817 8.78571C6.41343 8.69658 6.55762 8.50782 6.55762 8.23256C6.55762 8.08051 6.49732 7.94157 6.38197 7.83409C6.10933 7.57455 5.66629 7.66369 5.50638 8.00973C5.41725 8.20373 5.45657 8.47112 5.59551 8.62055C5.71872 8.75425 5.98612 8.83552 6.13817 8.78571Z" fill=""/>
<path d="M6.21612 6.91655C6.2633 6.88247 6.32884 6.82218 6.35768 6.78286C6.41273 6.70945 6.41273 6.68848 6.4206 4.9137C6.42584 3.16775 6.42584 3.11794 6.37603 3.01832C6.22398 2.72208 5.78881 2.72208 5.63676 3.01832C5.58695 3.11794 5.58695 3.16775 5.59219 4.9137C5.60005 6.68848 5.60005 6.70945 5.65511 6.78286C5.74686 6.90869 5.87007 6.97423 6.00639 6.97423C6.09028 6.97423 6.15582 6.95588 6.21612 6.91655Z" fill=""/>
</svg>
