<svg width="275" height="181" viewBox="0 0 275 181" fill="none" xmlns="http://www.w3.org/2000/svg">
<path d="M23.3438 177H0.394531L65.0918 0.242188H88.2852L152.982 177H129.789L112.211 127.195H41.166L23.3438 177ZM47.7578 107.908H105.375L77.2988 28.8066H75.834L47.7578 107.908ZM167.875 139.402C167.875 108.885 194.73 102.049 217.68 100.34C226.103 99.7295 247.587 98.6309 253.568 98.3867V87.6445C253.568 70.7988 243.559 61.0332 223.539 61.0332C206.693 61.0332 196.684 68.8457 193.754 78.8555H171.781C174.467 57.6152 195.219 42.7227 224.516 42.7227C241.85 42.7227 274.32 47.8496 274.32 89.5977V177H253.568V158.934H252.592C248.197 167.967 235.99 180.174 213.041 180.174C187.895 180.174 167.875 165.281 167.875 139.402ZM188.871 140.379C188.871 154.295 200.59 161.375 216.703 161.375C240.385 161.375 253.568 145.506 253.568 128.904V115.477C247.343 115.965 226.469 117.552 220.121 117.918C201.078 119.139 188.871 125.975 188.871 140.379Z" fill=""/>
</svg>
