<svg width="301" height="300" viewBox="0 0 301 300" fill="none" xmlns="http://www.w3.org/2000/svg">
<path opacity="0.986" fill-rule="evenodd" clip-rule="evenodd" d="M61.3266 0.0407645C100.887 -0.0679381 140.447 0.0407645 180.006 0.366807C188.132 3.43369 190.414 8.97641 186.853 16.995C185.377 18.9079 183.529 20.3207 181.31 21.2335C141.533 21.4509 101.756 21.6683 61.9787 21.8856C39.047 25.6894 25.6793 39.0572 21.8755 61.9888C21.4407 102.853 21.4407 143.717 21.8755 184.581C36.1968 194.55 50.8685 204.005 65.8912 212.946C86.413 220.502 105.323 217.676 122.623 204.469C140.012 187.08 157.4 169.692 174.789 152.303C195.706 135.588 218.094 133.414 241.954 145.782C254.018 153.933 266.081 162.084 278.145 170.235C278.362 153.064 278.58 135.892 278.797 118.72C282.02 112.057 287.127 109.992 294.121 112.525C297.152 114.126 299 116.626 299.664 120.024C300.294 161.554 300.077 203.071 299.012 244.573C291.773 277.026 271.666 295.393 238.694 299.674C179.571 300.109 120.449 300.109 61.3266 299.674C34.022 296.41 15.0029 282.173 4.26917 256.962C2.1396 251.052 0.835426 244.966 0.356665 238.704C-0.281009 177.612 -0.0636038 116.533 1.00875 55.468C8.39159 23.0472 28.4975 4.57145 61.3266 0.0407645Z" fill=""/>
<path opacity="0.965" fill-rule="evenodd" clip-rule="evenodd" d="M245.214 0.0409782C251.667 -0.339709 255.905 2.48604 257.93 8.51808C258.256 19.6014 258.365 30.6868 258.256 41.7744C269.344 41.6658 280.429 41.7745 291.513 42.1005C299.768 45.5622 301.833 51.3222 297.707 59.3807C296.338 61.3154 294.49 62.5107 292.165 62.9672C280.864 63.2932 269.561 63.4021 258.256 63.2932C258.365 74.3806 258.256 85.4661 257.93 96.5496C254.863 104.675 249.321 106.957 241.302 103.396C239.389 101.92 237.976 100.072 237.063 97.8537C236.737 86.3353 236.628 74.8156 236.737 63.2932C225.215 63.4021 213.695 63.2932 202.177 62.9672C194.879 59.2901 193.031 53.7473 196.634 46.339C198.446 44.1825 200.728 42.7696 203.481 42.1005C214.565 41.7745 225.65 41.6658 236.737 41.7744C236.628 30.4695 236.737 19.1667 237.063 7.866C238.423 3.78799 241.14 1.17965 245.214 0.0409782Z" fill=""/>
<path opacity="0.979" fill-rule="evenodd" clip-rule="evenodd" d="M94.5829 66.5535C109.223 64.6539 121.069 69.4357 130.122 80.8993C140.471 99.1395 137.971 115.333 122.623 129.48C108.862 138.356 94.9514 138.574 80.8892 130.132C67.7542 119.415 63.5157 105.83 68.1735 89.3764C73.0954 77.1662 81.8986 69.5583 94.5829 66.5535Z" fill=""/>
</svg>
