<svg width="300" height="300" viewBox="0 0 300 300" fill="none" xmlns="http://www.w3.org/2000/svg">
<path opacity="0.98" fill-rule="evenodd" clip-rule="evenodd" d="M112.815 0.00130261C121.237 -0.0836997 126.097 3.99145 127.397 12.2267C123.35 35.2216 119.461 58.2344 115.732 81.2641C146.597 81.2641 177.464 81.2641 208.329 81.2641C211.865 56.5056 215.875 31.8153 220.36 7.1927C224.719 0.333761 230.674 -1.46409 238.223 1.79915C241.608 4.52361 243.552 7.99943 244.056 12.2267C240.008 35.2216 236.119 58.2344 232.39 81.2641C252.32 81.144 272.25 81.2641 292.177 81.6237C299.77 85.5559 301.835 91.4292 298.375 99.2426C296.724 101.352 294.658 102.91 292.177 103.917C270.792 104.277 249.404 104.397 228.015 104.277C223.305 134.787 218.201 165.23 212.704 195.607C232.628 196.206 252.558 196.566 272.491 196.686C280.94 201.199 282.641 207.552 277.595 215.743C276.173 217.269 274.471 218.348 272.491 218.979C251.106 219.339 229.718 219.459 208.329 219.339C204.863 244.646 200.61 269.815 195.57 294.849C190.817 299.937 185.105 301.256 178.436 298.804C174.681 296.311 172.737 292.836 172.603 288.376C176.65 265.381 180.539 242.369 184.268 219.339C153.403 219.339 122.536 219.339 91.6709 219.339C88.2047 244.646 83.9518 269.815 78.9114 294.849C74.159 299.937 68.4471 301.256 61.7772 298.804C58.023 296.311 56.0784 292.836 55.9443 288.376C59.9916 265.381 63.8807 242.369 67.6101 219.339C47.6798 219.459 27.7504 219.339 7.82272 218.979C0.230455 215.047 -1.83535 209.174 1.62525 201.36C3.27619 199.251 5.34199 197.693 7.82272 196.686C29.2087 196.327 50.5962 196.206 71.9848 196.327C76.6949 165.816 81.7987 135.373 87.2962 104.996C67.1282 104.397 46.9565 104.037 26.7797 103.917C20.5604 100.878 18.2515 95.9641 19.8531 89.1747C20.878 85.5265 23.1868 83.0095 26.7797 81.6237C48.4089 81.2641 70.0388 81.144 91.6709 81.2641C95.2064 56.5041 99.2165 31.8139 103.701 7.1927C105.829 3.52228 108.867 1.1251 112.815 0.00130261ZM111.357 104.277C142.227 104.037 173.093 104.277 203.955 104.996C198.457 135.373 193.353 165.816 188.643 196.327C157.777 196.327 126.911 196.327 96.0456 196.327C100.992 165.616 106.096 134.933 111.357 104.277Z" fill=""/>
</svg>
