<svg width="300" height="300" viewBox="0 0 300 300" fill="none" xmlns="http://www.w3.org/2000/svg">
<path opacity="0.97" fill-rule="evenodd" clip-rule="evenodd" d="M205.664 0C212.304 0 218.945 0 225.586 0C260.271 5.67543 283.807 25.0114 296.191 58.0078C297.85 63.4682 299.12 68.9373 300 74.4141C300 80.8594 300 87.3047 300 93.75C297.792 110.038 291.64 124.686 281.543 137.695C266.227 153.597 250.7 169.32 234.961 184.863C228.012 189.646 221.664 188.963 215.918 182.813C213.183 177.93 213.183 173.047 215.918 168.164C231.559 152.718 246.989 137.093 262.207 121.289C279.967 95.8248 279.577 70.6295 261.035 45.7031C241.193 24.9478 217.854 19.772 191.015 30.1758C186.619 32.2744 182.517 34.8134 178.711 37.793C162.907 53.0108 147.282 68.4404 131.836 84.082C125.021 87.6194 119.064 86.5447 113.965 80.8594C110.956 75.3205 111.347 70.0471 115.136 65.0391C130.68 49.2999 146.403 33.7725 162.304 18.457C168.655 13.6185 175.491 9.51697 182.812 6.15235C190.333 3.44337 197.95 1.39259 205.664 0Z" fill=""/>
<path opacity="0.967" fill-rule="evenodd" clip-rule="evenodd" d="M205.664 79.1019C214.728 78.499 219.807 82.6984 220.899 91.6996C220.725 94.5642 219.846 97.201 218.262 99.6098C178.711 139.161 139.16 178.711 99.6097 218.262C92.7132 222.38 86.5608 221.501 81.1526 215.625C78.2833 210.408 78.4784 205.329 81.7386 200.391C121.289 160.84 160.84 121.289 200.391 81.7387C202.046 80.5205 203.803 79.6416 205.664 79.1019Z" fill=""/>
<path opacity="0.97" fill-rule="evenodd" clip-rule="evenodd" d="M93.75 300C87.3047 300 80.8594 300 74.4141 300C42.523 294.971 19.7691 277.783 6.15235 248.437C3.16793 240.793 1.11715 232.98 0 225C0 218.749 0 212.5 0 206.25C2.27029 189.988 8.42262 175.34 18.457 162.304C33.7725 146.403 49.2999 130.68 65.0391 115.136C71.9643 110.35 78.3123 111.034 84.082 117.187C86.7791 122.079 86.7791 126.962 84.082 131.836C69.6287 146.289 55.1758 160.742 40.7227 175.195C24.5545 194.272 20.8436 215.561 29.5898 239.062C40.7178 261.793 58.9793 273.903 84.375 275.39C98.1281 274.876 110.433 270.482 121.289 262.207C137.093 246.989 152.718 231.559 168.164 215.918C174.6 212.585 180.362 213.464 185.449 218.554C189.045 224.161 188.85 229.629 184.863 234.961C169.32 250.7 153.597 266.227 137.695 281.543C124.686 291.639 110.038 297.792 93.75 300Z" fill=""/>
</svg>
