<svg style="transition: .3s" width="300" height="300" viewBox="0 0 300 300" fill="none" xmlns="http://www.w3.org/2000/svg">
<path opacity="0.991" fill-rule="evenodd" clip-rule="evenodd" d="M0.340569 163.964C-2.70479 112.518 14.6731 69.6176 52.4743 35.264C92.86 3.19497 138.291 -7.00104 188.767 4.67446C230.232 16.1329 261.388 40.6291 282.235 78.164C301.294 115.455 305.017 154.251 293.406 194.554C276.812 243.848 243.918 276.8 194.725 293.41C143.668 307.701 97.2445 298.748 55.4533 266.551C23.7334 239.607 5.36254 205.411 0.340569 163.964ZM97.1603 129.644C96.9041 126.312 97.7733 123.328 99.767 120.691C114.042 106.391 128.316 92.0913 142.591 77.791C147.556 74.309 152.521 74.309 157.486 77.791C171.782 92.3613 186.305 106.661 201.055 120.691C204.396 128.306 202.286 133.902 194.725 137.478C190.407 138.577 186.683 137.582 183.553 134.494C176.726 127.654 169.899 120.816 163.072 113.976C162.824 147.052 162.575 180.13 162.327 213.206C160.38 221.875 155.042 225.481 146.315 224.024C141.519 221.955 138.663 218.349 137.75 213.206C137.502 180.378 137.253 147.55 137.005 114.722C129.682 122.059 122.358 129.396 115.035 136.732C106.797 140.447 100.839 138.085 97.1603 129.644Z" fill=""/>
</svg>
