<svg width="301" height="300" viewBox="0 0 301 300" fill="none" xmlns="http://www.w3.org/2000/svg">
<path d="M57.5697 0.125275C51.1811 0.835114 42.5376 3.34048 36.483 6.30515C18.361 15.0739 5.79243 31.1499 1.11577 51.5268L0.197145 55.5771L0.030121 147.649C-0.0533908 212.245 0.030121 240.764 0.364168 243.27C3.0783 264.356 16.1479 282.98 35.1051 292.75C42.7046 296.676 50.4712 298.889 59.4487 299.682C62.3299 299.932 97.029 300.058 153.191 299.974C253.28 299.807 244.928 300.1 255.2 296.676C277.54 289.285 294.075 270.87 298.668 248.155C300.13 241.015 300.213 235.461 300.088 145.979C299.921 47.2259 300.171 55.2013 296.956 45.1799C293.407 34.1146 288.062 25.6381 279.586 17.5375C271.151 9.43683 260.462 3.84155 248.06 1.00214L244.01 0.0835266L151.52 0C100.662 0 58.3631 0.041748 57.5697 0.125275ZM246.098 22.8822C262.257 27.3501 273.949 39.7516 277.498 56.2869C278.208 59.5439 278.25 63.3437 278.25 114.536C278.208 144.684 278.124 169.445 277.957 169.571C277.832 169.696 269.773 164.435 260.044 157.837C250.357 151.282 240.962 145.185 239.208 144.308C231.901 140.634 222.631 138.212 214.405 137.753C205.803 137.293 196.325 139.423 187.806 143.682C178.912 148.15 178.871 148.233 149.433 177.504C120.538 206.274 119.87 206.9 112.061 210.784C103.668 215.001 96.7785 216.671 87.634 216.671C77.195 216.713 68.9691 214.583 61.2025 209.907C51.8909 204.27 45.8781 200.428 34.1447 192.662L22.2025 184.728L21.9102 181.93C21.4926 177.504 21.6597 66.8512 22.0772 62.4668C22.7871 55.243 25.5847 47.3094 29.5933 41.213C35.2721 32.5278 43.2057 26.9326 54.8973 23.3833C58.4048 22.2976 59.1982 22.2141 69.6789 21.9636C75.7753 21.8383 117.03 21.7131 161.333 21.7131L241.922 21.7548L246.098 22.8822Z" fill=""/>
<path d="M95.7348 66.225C92.5613 66.6843 86.3815 68.9809 83.2498 70.8599C75.1491 75.7453 68.9693 84.3053 67.132 93.1158C64.8354 104.348 67.2155 114.745 74.1052 123.347C78.6984 129.109 83.1663 132.158 90.4318 134.454C100.119 137.502 109.013 136.625 118.742 131.656C122.876 129.569 127.01 125.477 130.601 120.048C137.908 108.983 138.201 96.7068 131.52 83.4702C128.805 78.0002 121.957 71.862 115.402 68.9391C110.182 66.6426 101.455 65.4316 95.7348 66.225Z" fill=""/>
</svg>
