<svg width="70" height="300" viewBox="0 0 70 300" fill="none" xmlns="http://www.w3.org/2000/svg">
<path opacity="0.976" fill-rule="evenodd" clip-rule="evenodd" d="M69.2559 27.4118C71.3729 48.7977 62.2395 62.617 41.8566 68.8713C20.4562 71.3379 6.63688 62.325 0.397047 41.8325C-2.06961 20.4325 6.94333 6.61262 27.4359 0.372926C48.8975 -2.00721 62.8373 7.00573 69.2559 27.4118Z" fill=""/>
<path opacity="0.976" fill-rule="evenodd" clip-rule="evenodd" d="M69.2559 142.777C71.3729 164.163 62.2395 177.983 41.8566 184.237C20.4562 186.704 6.63688 177.691 0.397047 157.198C-2.06961 135.798 6.94333 121.978 27.4359 115.739C48.8975 113.358 62.8373 122.371 69.2559 142.777Z" fill=""/>
<path opacity="0.976" fill-rule="evenodd" clip-rule="evenodd" d="M69.2559 258.143C71.3729 279.529 62.2395 293.348 41.8566 299.603C20.4562 302.069 6.63688 293.056 0.397047 272.564C-2.06961 251.163 6.94333 237.344 27.4359 231.104C48.8975 228.724 62.8373 237.737 69.2559 258.143Z" fill=""/>
</svg>
