<svg width="337" height="300" viewBox="0 0 337 300" fill="none" xmlns="http://www.w3.org/2000/svg">
<path d="M109.423 0.0848043C110.842 0.0807739 112.262 0.0758557 113.681 0.070121C117.521 0.0574893 121.361 0.0582811 125.201 0.0623143C128.414 0.0645016 131.627 0.0601908 134.84 0.0559329C142.424 0.0460269 150.008 0.0471105 157.592 0.0551576C165.4 0.063259 173.207 0.053331 181.015 0.0344036C187.733 0.0187306 194.451 0.0140815 201.169 0.0182194C205.175 0.0205924 209.18 0.018933 213.186 0.00674614C216.956 -0.00422134 220.725 -0.00133161 224.494 0.0119036C225.871 0.0144933 227.249 0.0123481 228.626 0.00492419C241.19 -0.0575844 250.396 1.74675 259.864 10.6457C263.064 13.8924 265.203 17.4965 267.406 21.462C268.034 22.565 268.034 22.565 268.675 23.6903C269.56 25.2453 270.442 26.8024 271.32 28.3614C273.504 32.2256 275.732 36.0642 277.954 39.9063C278.844 41.4507 279.734 42.995 280.624 44.5395C283.133 48.8869 285.66 53.2232 288.193 57.5564C292.077 64.1999 295.929 70.8609 299.77 77.5286C302.721 82.6475 305.69 87.7556 308.672 92.8567C313.022 100.302 317.346 107.763 321.644 115.239C323.303 118.123 324.974 120.998 326.659 123.866C327.043 124.524 327.427 125.183 327.823 125.862C328.53 127.074 329.241 128.284 329.958 129.491C335.353 138.791 337.693 148.437 335.168 159.049C332.878 167.085 327.875 174.261 323.607 181.384C321.269 185.292 319.015 189.248 316.748 193.198C315.872 194.715 314.996 196.231 314.119 197.748C311.477 202.319 308.839 206.892 306.2 211.465C305.317 212.995 304.435 214.525 303.552 216.054C303.115 216.812 302.678 217.569 302.228 218.349C294.946 230.969 294.946 230.969 287.664 243.589C287.008 244.725 287.008 244.725 286.339 245.885C285.459 247.409 284.579 248.933 283.699 250.457C281.442 254.365 279.19 258.277 276.947 262.193C274.358 266.71 271.752 271.216 269.127 275.712C268.782 276.304 268.437 276.897 268.081 277.507C262.134 287.638 255.725 295.613 243.944 299.061C240.847 299.807 237.901 299.916 234.727 299.9C234.133 299.903 233.539 299.905 232.927 299.908C230.951 299.915 228.975 299.913 226.998 299.91C225.576 299.913 224.153 299.917 222.731 299.921C218.876 299.93 215.021 299.931 211.167 299.929C207.945 299.928 204.723 299.932 201.501 299.935C193.898 299.943 186.295 299.943 178.692 299.939C170.858 299.935 163.023 299.943 155.188 299.958C148.454 299.971 141.719 299.975 134.984 299.973C130.965 299.971 126.946 299.973 122.928 299.983C119.147 299.992 115.367 299.991 111.587 299.981C110.203 299.98 108.819 299.982 107.435 299.987C94.0411 300.04 94.0411 300.04 88.3522 297.598C87.6458 297.306 86.9395 297.014 86.2117 296.713C75.4109 290.989 70.7279 282.045 64.9516 271.702C62.7854 267.84 60.5596 264.012 58.3408 260.18C57.4506 258.635 56.5605 257.091 55.6706 255.547C53.162 251.199 50.6346 246.863 48.1016 242.53C44.2181 235.886 40.366 229.225 36.5245 222.557C33.5736 217.439 30.6049 212.33 27.6232 207.229C23.2722 199.784 18.9486 192.323 14.6504 184.847C12.9921 181.963 11.3205 179.088 9.6356 176.22C9.25158 175.562 8.86755 174.903 8.4719 174.224C7.76498 173.012 7.05352 171.802 6.3362 170.595C0.941829 161.295 -1.39872 151.649 1.12643 141.037C3.41675 133.001 8.42007 125.825 12.6878 118.702C15.0256 114.794 17.2802 110.838 19.5465 106.888C20.4222 105.371 21.2985 103.855 22.1753 102.338C24.8173 97.7668 27.4562 93.1939 30.0947 88.6206C30.9774 87.0909 31.8601 85.5613 32.7428 84.0316C33.1797 83.2744 33.6166 82.5172 34.0668 81.7371C35.3908 79.4426 36.7149 77.1481 38.0389 74.8535C38.4759 74.0962 38.9129 73.3389 39.3631 72.5587C40.2452 71.0301 41.1273 69.5016 42.0094 67.9731C44.2262 64.132 46.442 60.2905 48.656 56.4478C53.4093 48.1998 58.1639 39.9525 62.9826 31.7425C64.8189 28.6137 66.641 25.4812 68.4007 22.3086C73.3096 13.5254 78.7483 6.45999 88.3522 2.48808C88.7684 2.30997 89.1846 2.13185 89.6134 1.94834C96.0112 -0.383257 102.714 0.0675934 109.423 0.0848043ZM129.215 109.255C118.882 119.248 112.418 132.93 112.154 147.368C112.066 161.759 115.51 174.917 125.072 186.049C125.423 186.5 125.773 186.95 126.134 187.414C134.045 197.191 147.2 204.206 159.674 205.817C176.882 207.209 192.216 203.34 205.598 192.18C215.424 183.288 223.117 170.198 224.058 156.727C224.423 140.81 221.908 126.477 211.223 114.037C210.872 113.586 210.522 113.136 210.161 112.672C201.006 101.357 186.983 95.4415 172.8 93.8305C156.672 92.4124 141.064 98.461 129.215 109.255Z" fill=""/>
<path d="M181.117 123.924C181.605 124.173 182.092 124.421 182.594 124.677C189.496 128.476 193.803 134.514 196.333 141.851C198.244 148.693 197.473 156.774 194.136 162.981C193.888 163.468 193.64 163.955 193.384 164.457C190.471 169.747 186.464 173.276 181.117 175.999C180.624 176.264 180.131 176.529 179.623 176.802C173.044 179.865 164.818 179.847 157.962 177.627C150.11 174.282 144.449 168.647 141.08 160.853C140.76 160.027 140.76 160.027 140.434 159.183C140.231 158.694 140.028 158.204 139.819 157.7C137.992 150.818 138.792 142.684 142.061 136.401C146.366 129.008 152.711 123.759 160.992 121.447C167.731 120.061 175.066 120.671 181.117 123.924Z" fill=""/>
</svg>
