<svg width="300" height="221" viewBox="0 0 300 221" fill="none" xmlns="http://www.w3.org/2000/svg">
<path opacity="0.969" fill-rule="evenodd" clip-rule="evenodd" d="M300 11.2494C300 13.9838 300 16.7182 300 19.4526C298.997 22.0348 297.533 24.3785 295.605 26.4838C232.422 89.6672 169.238 152.851 106.055 216.035C101.753 220.136 96.675 221.503 90.8203 220.136C88.8434 219.831 87.0855 219.05 85.5469 217.792C57.9101 190.156 30.2735 162.519 2.63672 134.882C1.41865 133.228 0.539751 131.47 0 129.609C0 126.874 0 124.14 0 121.406C4.9804 110.988 12.7929 108.155 23.4375 112.91C47.3471 136.233 71.0777 159.768 94.6289 183.515C154.297 123.847 213.965 64.1789 273.633 4.51117C278.779 0.0909143 284.638 -1.08096 291.211 0.995543C295.567 3.29259 298.496 6.71054 300 11.2494Z" fill=""/>
</svg>
