<svg width="300" height="300" viewBox="0 0 300 300" fill="none" xmlns="http://www.w3.org/2000/svg">
<path opacity="0.976" fill-rule="evenodd" clip-rule="evenodd" d="M140.625 0C146.875 0 153.125 0 159.375 0C189.127 4.86418 210.514 20.8798 223.535 48.0469C235.973 81.9328 229.82 111.913 205.078 137.988C202.929 139.746 200.781 141.504 198.633 143.262C213.314 148.453 226.986 155.484 239.648 164.355C244.058 169.092 244.937 174.463 242.285 180.469C238.814 185.142 234.224 186.802 228.516 185.449C222.668 181.952 216.809 178.437 210.937 174.902C164.766 152.35 120.04 154.888 76.7578 182.52C48.4413 202.751 30.8631 229.997 24.0234 264.258C24.6437 271.421 28.55 275.425 35.7422 276.27C77.1486 276.465 118.554 276.66 159.961 276.855C166.801 279.496 169.438 284.477 167.871 291.797C166.689 296.005 164.053 298.739 159.961 300C116.406 300 72.8514 300 29.2969 300C13.4766 296.289 3.71094 286.523 0 270.703C0 266.602 0 262.5 0 258.398C11.636 208.273 40.5422 171.847 86.7187 149.121C91.5551 147.053 96.4377 145.1 101.367 143.262C74.0144 120.184 64.7373 91.1801 73.5351 56.25C84.7764 24.2058 107.14 5.45576 140.625 0ZM142.383 24.0234C166.573 22.2032 185.225 31.3829 198.34 51.5625C208.106 70.3125 208.106 89.0625 198.34 107.812C184.284 129.339 164.459 138.226 138.867 134.473C114.241 128.01 99.4945 112.288 94.6289 87.3047C92.5219 63.1025 101.604 44.45 121.875 31.3477C128.385 27.7793 135.221 25.3379 142.383 24.0234Z" fill=""/>
<path opacity="0.962" fill-rule="evenodd" clip-rule="evenodd" d="M300.001 208.59C300.001 210.934 300.001 213.278 300.001 215.621C299.295 217.223 298.416 218.786 297.364 220.309C287.395 230.18 277.532 240.141 267.774 250.192C277.532 260.242 287.395 270.203 297.364 280.075C298.416 281.597 299.295 283.16 300.001 284.762C300.001 287.106 300.001 289.45 300.001 291.793C298.634 295.895 295.899 298.629 291.798 299.996C289.454 299.996 287.11 299.996 284.766 299.996C283.164 299.29 281.602 298.411 280.079 297.36C270.208 287.391 260.247 277.527 250.196 267.77C240.146 277.527 230.185 287.391 220.313 297.36C218.79 298.411 217.228 299.29 215.626 299.996C213.282 299.996 210.938 299.996 208.595 299.996C201.127 296.667 198.685 291.002 201.27 283.004C201.856 282.027 202.442 281.051 203.028 280.075C212.997 270.203 222.86 260.242 232.618 250.192C222.257 239.734 212.004 229.187 201.856 218.551C199.63 213.438 200.02 208.555 203.028 203.903C207.749 200.082 212.925 199.398 218.555 201.852C229.191 211.999 239.738 222.253 250.196 232.614C260.247 222.856 270.208 212.993 280.079 203.024C286.065 199.283 291.827 199.576 297.364 203.903C298.416 205.425 299.295 206.988 300.001 208.59Z" fill=""/>
</svg>
