<svg width="251" height="300" viewBox="0 0 251 300" fill="none" xmlns="http://www.w3.org/2000/svg">
<path opacity="0.991" fill-rule="evenodd" clip-rule="evenodd" d="M114.417 0C120.471 0 126.526 0 132.581 0C162.052 5.15033 182.071 21.7519 192.639 49.8047C201.873 86.9695 190.447 115.778 158.362 136.23C137.507 146.421 116.218 147.398 94.4947 139.16C63.3193 123.568 48.9638 98.2752 51.4283 63.2813C55.2258 38.7847 67.8234 20.3276 89.2213 7.91016C97.2252 3.7761 105.623 1.13938 114.417 0Z" fill=""/>
<path opacity="0.994" fill-rule="evenodd" clip-rule="evenodd" d="M206.409 300C152.307 300 98.2053 300 44.1039 300C25.385 297.595 12.0061 287.829 3.96722 270.703C2.19576 266.366 1.02388 261.874 0.451598 257.227C-1.12205 234.67 1.41699 212.6 8.06879 191.016C12.4365 177.286 19.956 165.665 30.6274 156.152C42.6461 147.069 56.1227 143.553 71.0571 145.606C77.5041 149.218 83.7543 153.125 89.8071 157.324C112.152 170.291 134.809 170.877 157.776 159.082C164.904 154.443 172.131 149.951 179.456 145.606C203.481 143.214 221.743 152.296 234.241 172.852C243.616 190.624 248.89 209.569 250.061 229.688C250.904 239.073 250.904 248.448 250.061 257.813C245.362 282.083 230.811 296.146 206.409 300Z" fill=""/>
</svg>
