<svg width="300" height="335" viewBox="0 0 300 335" fill="none" xmlns="http://www.w3.org/2000/svg">
<path d="M154.32 0.750949C152.687 1.29527 150.432 2.6172 149.266 3.62808C148.177 4.71672 138.224 13.9702 127.26 24.39C110.774 39.8643 107.12 43.7523 106.498 46.0852C105.487 49.7399 106.498 54.3277 108.908 56.8938C113.107 61.4039 150.899 96.396 152.532 97.3292C154.865 98.6511 161.241 98.5733 163.885 97.1736C165.129 96.5516 166.995 94.9964 168.162 93.6744C169.794 91.6527 170.183 90.4085 170.183 86.8315V82.3992L157.586 70.1908L144.911 57.9047H148.41C154.631 57.9047 168.861 59.4599 176.249 61.0151C201.676 66.3028 226.171 80.3774 243.744 99.8952C274.382 133.876 284.258 180.688 270.027 224.7C267.073 233.954 258.752 250.128 252.842 258.526C249.888 262.57 243.9 269.568 239.39 274.078C210.308 303.161 168.939 316.38 128.504 309.459C111.552 306.582 90.4013 297.717 76.0934 287.531C66.6066 280.766 53.7762 267.857 47.1666 258.526C33.1697 238.697 25.938 218.324 23.683 191.886C22.5166 178.589 21.8167 176.878 16.9178 174.39C11.3968 171.512 4.70947 173.301 1.36578 178.589C-0.111668 180.999 -0.189428 181.932 0.199373 193.208C1.36578 228.355 16.1402 262.336 41.8011 289.008C70.2614 318.713 108.053 334.809 149.577 334.887C221.35 335.198 282.314 285.587 297.399 214.592C300.121 201.994 300.82 177.889 298.954 164.436C289.001 93.2856 230.836 39.1645 159.608 34.7322L151.365 34.1878L159.608 26.4896C168.706 18.0915 170.183 15.992 170.183 11.2486C170.183 3.31704 162.096 -2.04842 154.32 0.750949Z" fill=""/>
</svg>
