<svg width="272" height="300" viewBox="0 0 272 300" fill="none" xmlns="http://www.w3.org/2000/svg">
<path opacity="0.963" fill-rule="evenodd" clip-rule="evenodd" d="M108.831 0.105699C127.379 -0.180548 145.875 0.114601 164.319 0.991147C167.696 3.87404 168.778 7.51424 167.566 11.9117C165.205 17.4211 162.844 22.9306 160.482 28.44C160.04 29.11 160.138 29.7003 160.778 30.2109C210.959 41.1408 245.492 70.4586 264.375 118.165C278.269 161.361 273.153 202.092 249.027 240.357C218.29 283.022 176.477 302.797 123.589 299.682C78.8813 294.476 44.3488 273.127 19.9914 235.635C-2.45856 196.805 -6.00036 156.271 9.366 114.033C28.9578 68.7722 62.9002 40.8314 111.192 30.2109C111.389 29.9158 111.586 29.6206 111.783 29.3255C108.456 22.5827 105.898 15.5975 104.109 8.36988C104.081 6.72011 104.376 5.14596 104.994 3.64749C106.212 2.3287 107.491 1.1481 108.831 0.105699ZM115.915 46.7393C117.076 46.5979 118.159 46.7947 119.161 47.3296C122.31 54.8067 125.458 62.2836 128.606 69.7609C131.973 73.3605 136.007 74.246 140.707 72.4172C141.593 71.5318 142.478 70.6464 143.364 69.7609C146.498 62.1272 149.744 54.5514 153.104 47.0344C155.277 46.9031 157.441 47.0999 159.597 47.6247C164.118 48.7721 168.644 49.8543 173.174 50.8714C163.574 75.1893 153.638 99.3915 143.364 123.478C138.445 122.691 133.525 122.691 128.606 123.478C118.332 99.3915 108.396 75.1893 98.7962 50.8714C104.586 49.5709 110.293 48.1935 115.915 46.7393ZM81.6775 57.9549C82.4154 58.0006 82.9071 58.3941 83.1533 59.1355C92.8932 82.5509 102.633 105.966 112.373 129.381C108.438 132.923 104.699 136.661 101.157 140.597C77.2804 130.671 53.4719 120.636 29.7313 110.491C41.5349 87.4722 58.8501 69.9604 81.6775 57.9549ZM22.6477 127.02C46.9656 136.619 71.1679 146.556 95.2544 156.83C94.4675 161.749 94.4675 166.668 95.2544 171.587C71.3178 181.791 47.3127 191.629 23.238 201.102C18.9736 189.091 17.0059 176.695 17.335 163.913C17.2064 151.335 18.9773 139.037 22.6477 127.02ZM135.395 139.416C153.238 141.614 161.404 151.649 159.892 169.521C155.284 183.685 145.544 189.883 130.672 188.116C116.509 183.508 110.311 173.768 112.078 158.896C115.503 147.101 123.276 140.608 135.395 139.416ZM100.567 187.821C104.462 191.517 108.398 195.256 112.373 199.036C102.437 222.845 92.4995 246.654 82.563 270.462C59.4428 258.361 41.8324 240.751 29.7313 217.631C53.4636 207.826 77.0756 197.889 100.567 187.821Z" fill=""/>
</svg>
