<svg width="300" height="301" viewBox="0 0 300 301" fill="none" xmlns="http://www.w3.org/2000/svg">
<path d="M30.4805 2.01906C17.973 6.01306 7.35737 15.8929 2.31231 28.2954C0.105105 33.8659 0 35.2323 0 67.8149V101.449L3.88889 109.331C10.7207 123.205 23.7538 132.56 39.2042 134.557C48.7688 135.713 86.6067 135.713 95.3304 134.452C115.406 131.509 131.066 115.953 134.009 95.9831C135.27 86.839 135.376 47.8449 134.009 38.8059C131.802 23.7758 121.922 10.4275 107.943 3.80585L100.901 0.442486L68.8439 0.232276C39.6247 0.0220655 36.2613 0.127171 30.4805 2.01906Z" fill=""/>
<path d="M197.598 1.38805C183.409 5.90758 173.108 15.6824 167.643 29.8716C165.436 35.6524 165.12 38.28 164.7 60.9827C163.964 98.9257 166.066 108.595 177.628 120.682C184.775 128.25 193.919 132.98 204.009 134.451C212.943 135.713 250.676 135.818 260.556 134.451C276.112 132.454 289.355 122.679 296.292 108.175L299.55 101.343V67.7094C299.55 35.2319 299.445 33.8656 297.238 28.295C292.088 15.6824 281.472 5.90758 268.754 2.01868C262.658 0.126789 259.085 -0.0834211 231.862 0.0216841C210.631 0.0216841 200.541 0.442105 197.598 1.38805Z" fill=""/>
<path d="M38.3634 165.983C22.8078 168.085 10.1952 177.44 3.25826 192.154L0 199.091V232.725C0 265.202 0.105105 266.569 2.31231 272.139C7.56758 284.857 18.1832 294.632 31.1111 298.521C37.6277 300.518 40.4655 300.623 69.5797 300.308L100.901 299.992L107.943 296.629C121.922 290.007 131.802 276.659 134.009 261.629C135.376 252.59 135.27 213.596 134.009 204.452C132.538 194.362 127.808 185.217 120.24 178.07C113.093 171.238 105.21 167.455 95.3304 165.983C87.2373 164.827 46.982 164.827 38.3634 165.983Z" fill=""/>
<path d="M203.063 165.983C193.919 167.455 184.46 172.605 177.628 179.752C166.066 191.839 163.964 201.509 164.7 239.452C165.12 262.154 165.436 264.782 167.643 270.563C172.373 282.86 179.835 290.953 191.817 296.734L198.649 299.992H232.283C264.76 299.992 266.127 299.887 271.697 297.68C284.415 292.425 294.19 281.809 298.079 268.881C300.076 262.365 300.181 259.527 299.865 230.413L299.55 199.091L296.292 192.154C290.721 180.382 282.418 172.815 270.121 168.085C264.235 165.773 262.133 165.668 236.487 165.352C221.457 165.247 206.427 165.458 203.063 165.983Z" fill=""/>
</svg>
