<svg width="300" height="255" viewBox="0 0 300 255" fill="none" xmlns="http://www.w3.org/2000/svg">
<path d="M28.0929 1.19049C15.1442 4.61608 4.31935 15.2354 1.03079 27.8415C0.140141 31.4041 0.00311804 43.8733 0.00311804 127.526C0.00311804 232.965 -0.270929 226.799 4.31935 235.363C7.26536 240.981 14.2535 247.901 19.8715 250.641C29.1206 255.3 20.2826 255.026 151.825 254.821L270.967 254.615L275.077 252.971C286.108 248.586 294.192 240.433 298.234 229.951L299.742 225.84L299.947 129.033C300.084 42.4345 300.016 31.7467 298.988 27.9786C295.768 15.2354 284.806 4.47905 271.652 1.12198C265.691 -0.385274 33.9164 -0.385274 28.0929 1.19049ZM149.907 25.5806C150.934 26.8824 171.282 63.8102 171.282 64.3583C171.214 64.6323 157.923 72.3741 141.685 81.6232C125.379 90.8723 111.061 99.2992 109.759 100.464C104.894 104.643 104.141 110.604 107.772 116.633C109.005 118.688 119.35 134.788 130.792 152.396C147.235 177.745 151.482 184.733 151.003 185.692C149.975 187.816 132.573 213.166 132.162 213.166C131.957 213.166 125.311 203.711 117.501 192.064C109.622 180.486 101.948 169.387 100.51 167.4C97.0842 162.878 92.6994 159.658 87.2185 157.671C83.5874 156.369 81.9431 156.164 76.2566 156.438C69.1999 156.712 65.2262 158.151 59.8138 162.261C58.6491 163.221 50.2907 173.36 41.3157 184.87L25.0099 205.766L24.8043 120.88C24.5988 26.6768 24.3248 32.5003 29.1891 28.2526C30.4908 27.0879 32.4091 25.9917 33.4368 25.7177C34.4645 25.5121 35.6292 25.2381 35.9717 25.1011C36.3828 24.964 62.0062 24.827 92.9049 24.827C137.163 24.7585 149.359 24.964 149.907 25.5806ZM268.295 26.2658C271.241 27.8415 273.844 31.1301 274.735 34.2131C275.283 35.9944 275.42 61.7548 275.283 117.866L275.077 198.984L253.291 165.687C239.109 144.037 230.408 131.431 228.421 129.581C217.733 119.784 200.879 119.784 190.192 129.581C188.616 131.02 182.861 138.899 177.448 146.983C171.967 155.068 167.309 161.645 167.035 161.576C166.761 161.508 159.635 150.751 151.14 137.666L135.793 113.892L159.841 100.053C193.823 80.5955 196.084 79.2253 197.796 77.444C199.852 75.1831 200.742 72.5111 200.742 68.743C200.742 65.8655 199.509 63.3306 189.78 45.7231C183.751 34.7612 178.819 25.5806 178.819 25.3066C178.819 24.964 198.481 24.827 222.529 24.8955C262.197 25.1011 266.376 25.2381 268.295 26.2658Z" fill=""/>
</svg>
