<svg width="247" height="300" viewBox="0 0 247 300" fill="none" xmlns="http://www.w3.org/2000/svg">
<path opacity="0.96" fill-rule="evenodd" clip-rule="evenodd" d="M88.9488 0.040588C129.637 -0.067644 170.323 0.040588 211.01 0.365219C231.029 3.93616 242.824 15.7311 246.395 35.75C246.828 94.1836 246.828 152.617 246.395 211.051C243.854 228.093 234.44 239.455 218.152 245.137C216.248 245.756 214.301 246.08 212.309 246.111C212.861 238.984 213.077 231.842 212.958 224.685C219.499 222.362 223.719 217.817 225.619 211.051C226.052 152.833 226.052 94.6167 225.619 36.3993C223.562 28.2835 218.477 23.1976 210.361 21.1416C170.107 20.7087 129.852 20.7087 89.5981 21.1416C82.4543 22.7713 77.6932 26.9915 75.3143 33.8022C68.1575 33.6826 61.0156 33.899 53.8887 34.4515C57.8875 15.0864 69.5742 3.61608 88.9488 0.040588Z" fill=""/>
<path opacity="0.961" fill-rule="evenodd" clip-rule="evenodd" d="M35.0602 53.2802C76.1806 53.1717 117.301 53.2802 158.42 53.6048C177.789 57.392 189.368 68.9709 193.156 88.3403C193.589 147.207 193.589 206.073 193.156 264.94C189.292 284.602 177.497 296.18 157.771 299.675C117.083 300.108 76.3968 300.108 35.7094 299.675C15.6728 296.087 3.87787 284.292 0.324647 264.29C-0.108216 205.857 -0.108216 147.423 0.324647 88.9896C3.90487 69.2864 15.4834 57.3829 35.0602 53.2802ZM36.3587 74.0566C76.6136 73.9481 116.868 74.0566 157.121 74.3812C165.237 76.4374 170.323 81.5231 172.379 89.6389C172.812 147.639 172.812 205.641 172.379 263.641C170.323 271.757 165.237 276.843 157.121 278.899C116.867 279.332 76.613 279.332 36.3587 278.899C28.2429 276.843 23.1573 271.757 21.101 263.641C20.6682 205.641 20.6682 147.639 21.101 89.6389C23.2754 81.5133 28.3611 76.3192 36.3587 74.0566Z" fill=""/>
</svg>
