<svg width="401" height="300" viewBox="0 0 401 300" fill="none" xmlns="http://www.w3.org/2000/svg">
<path opacity="0.965" fill-rule="evenodd" clip-rule="evenodd" d="M0 154.759C0 151.633 0 148.506 0 145.38C29.732 95.7216 71.4179 59.898 125.058 37.9082C168.786 22.7867 213.078 20.963 257.932 32.4369C268.27 35.4484 278.302 39.226 288.024 43.7702C301.962 29.8318 315.902 15.8927 329.84 1.95401C335.051 -0.651337 340.261 -0.651337 345.472 1.95401C350.607 7.38199 351.519 13.5046 348.208 20.3219C255.587 112.943 162.966 205.564 70.3451 298.185C55.989 303.104 49.3453 298.024 50.414 282.943C50.9351 281.902 51.4561 280.859 51.9772 279.817C63.9729 267.951 75.8274 255.967 87.5405 243.863C51.2138 221.085 22.0336 191.384 0 154.759ZM199.311 50.0231C223.094 50.3248 246.021 54.884 268.093 63.7013C259.886 71.9083 251.679 80.1152 243.472 88.3221C220.175 73.4309 195.555 70.9555 169.61 80.8968C136.878 97.4982 122.157 124.204 125.449 161.012C127.303 172.833 131.602 183.645 138.345 193.449C128.184 203.61 118.023 213.771 107.862 223.932C75.2909 206.091 48.7161 181.471 28.138 150.069C51.7643 113.802 83.0291 86.3149 121.931 67.6094C146.637 56.4964 172.431 50.6344 199.311 50.0231ZM199.311 100.046C208.275 100.386 216.612 102.86 224.323 107.472C202.047 129.748 179.771 152.023 157.495 174.299C150.889 162.827 149.065 150.582 152.024 137.564C157.625 119.456 169.479 107.602 187.587 102C191.607 101.345 195.515 100.693 199.311 100.046Z" fill=""/>
<path opacity="0.959" fill-rule="evenodd" clip-rule="evenodd" d="M400.185 145.38C400.185 148.506 400.185 151.633 400.185 154.759C367.697 209.252 321.321 246.64 261.058 266.921C219.85 277.959 178.685 277.829 137.564 266.53C137.447 265.707 137.577 264.926 137.955 264.185C144.501 257.377 151.275 250.864 158.276 244.645C214.114 256.509 265.31 245.957 311.863 212.989C335.556 195.421 355.617 174.447 372.047 150.07C356.152 126.486 336.872 106.034 314.208 88.713C319.645 82.493 325.376 76.5011 331.403 70.736C332.185 70.2146 332.967 70.2146 333.748 70.736C360.541 91.6566 382.687 116.538 400.185 145.38Z" fill=""/>
<path opacity="0.95" fill-rule="evenodd" clip-rule="evenodd" d="M271.22 130.529C280.038 160.785 272.483 186.708 248.553 208.3C228.569 223.846 206.162 228.796 181.334 223.15C180.591 222.589 180.461 221.938 180.943 221.196C188.108 214.031 195.273 206.867 202.438 199.702C230.185 195.924 245.948 180.162 249.725 152.414C257.048 145.222 264.213 137.927 271.22 130.529Z" fill=""/>
</svg>
