<svg style="transition: .3s" width="301" height="300" viewBox="0 0 301 300" fill="none" xmlns="http://www.w3.org/2000/svg">
<path d="M206.088 23.7217C208.285 25.6275 210.549 27.4498 212.805 29.2841C219.542 34.7632 226.239 40.2872 232.851 45.9153C235.586 48.2369 238.376 50.4794 241.188 52.7064C243.284 54.3991 245.333 56.1439 247.381 57.894C250.508 60.5633 253.689 63.1383 256.94 65.6548C260.988 68.7927 264.868 72.0919 268.717 75.4699C271.171 77.6199 273.656 79.6971 276.232 81.7026C290.03 92.6726 298.274 107.828 300.378 125.295C300.717 129.564 300.633 133.857 300.636 138.137C300.639 139.252 300.643 140.367 300.647 141.482C300.656 144.5 300.661 147.518 300.664 150.537C300.666 152.428 300.669 154.319 300.672 156.21C300.681 162.143 300.688 168.076 300.691 174.009C300.694 180.828 300.706 187.646 300.727 194.465C300.742 199.755 300.749 205.044 300.75 210.334C300.75 213.484 300.755 216.634 300.767 219.784C300.779 222.754 300.78 225.723 300.774 228.693C300.774 229.773 300.776 230.853 300.784 231.932C300.904 251.651 295.159 268.977 281.187 283.312C265.869 297.895 248.386 300.087 228.179 299.982C225.582 299.971 222.986 299.982 220.39 299.995C218.713 299.994 217.036 299.991 215.36 299.987C214.596 299.991 213.833 299.996 213.047 300C203.626 299.915 195.796 297.673 188.775 291.215C180.654 282.623 179.656 273.281 179.644 261.964C179.641 260.087 179.629 258.21 179.615 256.333C179.576 251.001 179.555 245.668 179.537 240.336C179.526 237.062 179.505 233.789 179.478 230.516C179.47 229.277 179.466 228.038 179.466 226.799C179.465 214.996 177.977 205.681 169.628 196.813C164.169 191.549 158.083 188.939 150.48 188.557C141.626 188.881 135.142 192.614 129.215 198.861C122.098 207.194 121.427 216.071 121.415 226.586C121.413 228.46 121.401 230.334 121.387 232.209C121.348 237.533 121.326 242.858 121.309 248.183C121.298 251.451 121.277 254.72 121.25 257.989C121.242 259.225 121.237 260.462 121.237 261.698C121.237 272.813 120.308 282.231 112.435 290.79C104.564 298.23 96.1403 299.927 85.6314 299.919C84.8121 299.922 83.9929 299.925 83.1489 299.928C81.4202 299.932 79.6914 299.932 77.9627 299.929C75.3548 299.927 72.7476 299.943 70.1398 299.961C57.9036 299.994 46.51 299.641 35.3394 294.095C34.3695 293.63 34.3695 293.63 33.38 293.155C18.2861 285.47 8.45934 271.947 3.06835 256.212C0.557035 247.834 0.155042 239.855 0.149125 231.172C0.145874 230.057 0.142348 228.942 0.13857 227.827C0.129405 224.808 0.124845 221.79 0.121721 218.772C0.119658 216.881 0.116776 214.99 0.11365 213.098C0.104065 207.165 0.0972877 201.232 0.0945741 195.3C0.0914372 188.481 0.0791568 181.662 0.0587989 174.844C0.0435614 169.554 0.0365465 164.264 0.0356125 158.975C0.0348821 155.825 0.0308493 152.675 0.0182066 149.524C0.00651955 146.555 0.00519478 143.585 0.0112914 140.616C0.0118253 139.536 0.00887335 138.456 0.0018498 137.376C-0.120051 117.437 5.77581 100.208 19.8177 85.6488C22.5135 83.0274 25.3995 80.6691 28.3294 78.3155C30.5942 76.4824 32.8153 74.6041 35.0325 72.7141C38.2235 69.9997 41.4604 67.3576 44.7445 64.7559C46.9014 63.0148 49.0138 61.2256 51.1241 59.4286C54.3332 56.6961 57.5865 54.0353 60.891 51.4184C62.987 49.7256 65.0362 47.9808 67.0843 46.2308C70.2106 43.5614 73.3924 40.9864 76.6428 38.4699C80.6929 35.3304 84.5714 32.0256 88.4274 28.6517C91.353 26.0956 94.3151 23.6074 97.374 21.2108C98.7456 20.1327 100.099 19.0408 101.446 17.9333C135.17 -9.55291 174.76 -3.72221 206.088 23.7217Z" fill=""/>
</svg>
