<svg width="100%" height="100%" viewBox="0 0 64 78" fill="none" xmlns="http://www.w3.org/2000/svg">
<path fill-rule="evenodd" clip-rule="evenodd" d="M10.7126 0.0171176C13.7076 -0.160882 16.4776 1.05412 18.2516 2.54612C20.3636 4.32312 22.1356 6.90312 22.3556 10.5151C22.5936 14.4371 21.0086 16.9801 19.2536 18.9581C17.4716 20.9701 14.4406 22.4911 11.1906 22.4421C7.74359 22.3891 5.10059 20.9641 3.17459 18.9111C1.39659 17.0161 -0.22441 14.2391 0.0255896 10.5151C0.23259 7.42312 1.64659 4.93312 3.31759 3.26112C4.13959 2.43912 5.18359 1.63112 6.41859 1.06812C7.68359 0.490117 9.01359 0.119118 10.7126 0.0171176Z" fill="#D3FF63"/>
<path fill-rule="evenodd" clip-rule="evenodd" d="M21.5916 62.8081C21.2516 63.7961 21.4016 65.1171 21.4006 66.3861C21.4006 70.0541 21.3996 73.9801 21.2576 77.5031C14.7346 77.6811 7.65164 77.5441 1.07464 77.4071C0.818641 76.3521 0.930641 75.2531 0.930641 74.1631C0.932641 66.4131 0.977641 58.5651 0.978641 50.7841C0.980641 41.9141 0.989641 32.8511 1.17064 24.1601C7.70564 23.9611 14.7696 24.1111 21.3536 24.2561C21.6096 25.0351 21.4966 25.8971 21.4966 26.7361C21.4966 29.1791 21.2656 32.0841 21.5926 34.4201C22.0116 37.4081 23.4536 39.6541 25.1716 41.2421C26.5256 42.5151 28.3206 43.3401 30.5156 43.7221C35.5166 44.5971 39.0876 41.9471 41.1556 39.0951C42.3126 37.4971 43.0946 35.6221 43.1596 33.3221C43.2956 28.4391 40.2606 25.4471 37.2436 23.6361C35.5556 22.6221 33.6156 22.0721 31.2316 21.8701C28.8636 21.6691 26.3126 21.8411 23.7406 21.5831C23.6726 15.7161 23.5396 9.82305 23.6926 3.45205C23.7116 2.67905 23.5896 1.39105 23.8836 1.06705C23.9186 1.02205 23.9706 0.995053 24.0266 0.971053C30.3516 0.901053 36.4696 0.879053 41.1076 2.35405C45.7916 3.84405 49.6256 6.11805 52.8926 9.03405C54.4396 10.4151 56.0246 12.0421 57.3776 13.8051C60.0846 17.3321 62.0166 21.2211 63.1036 26.4961C63.6426 29.1151 63.9636 32.0491 63.7236 34.9901C63.2636 40.6311 61.7996 45.3101 59.4776 49.2091C57.1926 53.0431 54.1516 56.1931 50.6026 58.7501C47.1406 61.2441 42.7376 63.2811 37.5776 64.1891C33.5366 64.9021 28.9196 64.7381 25.1726 63.8081C23.9486 63.5081 22.8336 63.0271 21.5916 62.8081Z" fill=""/>
</svg>
