<svg width="300" height="300" viewBox="0 0 300 300" fill="none" xmlns="http://www.w3.org/2000/svg">
<path opacity="0.989" fill-rule="evenodd" clip-rule="evenodd" d="M44.5312 0C48.4375 0 52.3437 0 56.25 0C59.9367 1.15827 63.4523 2.81842 66.7969 4.98047C84.692 22.0853 99.4383 41.5189 111.035 63.2812C113.862 71.7439 113.667 80.1428 110.449 88.4766C104.551 98.2881 97.3242 107.077 88.7695 114.844C83.4896 123.611 84.0756 132.01 90.5273 140.039C110.596 168.311 134.912 192.237 163.477 211.816C170.832 216.221 178.058 216.026 185.156 211.23C192.923 202.676 201.712 195.449 211.523 189.551C222.737 185.391 233.48 186.367 243.75 192.48C262.527 203.825 279.617 217.399 295.02 233.203C297.182 236.548 298.842 240.063 300 243.75C300 247.656 300 251.562 300 255.469C294.25 268.004 286.242 279.039 275.977 288.574C266.968 294.993 257.007 298.802 246.094 300C239.062 300 232.031 300 225 300C199.757 296.305 175.929 288.2 153.516 275.684C92.8295 241.17 47.029 192.635 16.1133 130.078C7.9268 112.461 2.55573 94.1021 0 75C0 67.7736 0 60.5467 0 53.3203C1.76913 38.1612 8.40973 25.5636 19.9219 15.5273C27.3375 8.99385 35.5406 3.81809 44.5312 0Z" fill=""/>
</svg>
