<svg width="301" height="300" viewBox="0 0 301 300" fill="none" xmlns="http://www.w3.org/2000/svg">
<path d="M8.33099 0.990021C4.45884 2.33942 3.10945 3.51279 1.40805 7.20895L0 10.1424V137.161C0 223.991 0.176007 264.883 0.645358 266.408C1.40805 269.224 4.3415 272.569 7.21628 273.859C8.44833 274.446 38.3108 280.665 73.6295 287.705C135.643 300.084 137.872 300.495 140.629 299.791C144.091 298.852 147.083 296.505 148.667 293.455C149.723 291.519 149.958 289.876 150.075 283.129L150.31 275.033H183.106C214.259 275.033 216.078 274.974 218.131 273.918C219.304 273.273 221.006 272.04 221.886 271.102C225.406 267.406 225.289 268.755 225.289 225.164C225.289 190.373 225.171 184.976 224.35 183.04C222.414 178.405 217.896 175.295 212.968 175.295C207.805 175.295 204.051 177.525 201.645 182.042C200.354 184.33 200.354 184.917 200.178 217.42L200.002 250.392H175.127H150.192V149.422C150.192 75.4409 150.016 47.8078 149.547 46.1651C148.667 43.2903 146.086 40.1809 143.563 38.9488C142.448 38.4795 132.181 35.194 120.799 31.7912C109.359 28.3884 99.9132 25.455 99.7959 25.3376C99.6785 25.2203 122.149 25.103 149.782 25.103H200.061V56.5495C200.061 78.6677 200.237 88.7587 200.765 90.6948C201.704 94.567 205.869 98.6151 209.8 99.5538C215.608 100.962 221.182 98.3218 223.763 92.9829L225.347 89.8735L225.171 49.0986L224.995 8.32364L223.353 5.85956C222.473 4.51016 220.654 2.69144 219.304 1.8114L216.84 0.168671L114.17 0.0513306C16.134 -0.0660095 11.3231 -0.0660095 8.33099 0.990021Z" fill=""/>
<path d="M246.762 87.996C243.359 88.9347 239.193 93.3349 238.255 96.855C237.492 99.9058 237.844 102.957 239.252 105.773C239.721 106.711 243.945 111.405 248.639 116.157L257.205 124.781L220.83 124.957C184.925 125.133 184.514 125.133 182.167 126.424C177.708 128.83 175.42 132.584 175.42 137.571C175.479 142.91 179.234 148.132 184.044 149.422C185.511 149.833 198.888 150.068 222.003 150.068H257.791L248.346 159.572C239.721 168.314 238.9 169.37 238.255 172.069C236.847 177.994 239.428 183.509 244.943 186.149C247.7 187.557 248.698 187.733 251.455 187.44C253.215 187.264 255.503 186.56 256.559 185.914C257.557 185.269 267.589 175.53 278.736 164.324C300.209 142.675 300.385 142.441 300.385 137.102C300.326 132.584 298.684 130.531 278.501 110.29C267.765 99.5538 257.967 90.1081 256.677 89.3454C253.861 87.7027 249.871 87.116 246.762 87.996Z" fill=""/>
</svg>
