<svg width="300" height="284" viewBox="0 0 300 284" fill="none" xmlns="http://www.w3.org/2000/svg">
<path opacity="0.981" fill-rule="evenodd" clip-rule="evenodd" d="M300 132.349C300 145.435 300 158.521 300 171.607C295.339 190.816 283.23 202.047 263.672 205.298C257.422 205.689 251.172 205.689 244.922 205.298C241.474 204.511 239.228 202.461 238.184 199.146C237.988 167.505 237.793 135.865 237.598 104.224C235.055 69.3298 218.356 43.8415 187.5 27.7593C154.785 13.9402 124.121 17.4558 95.5078 38.3062C75.0627 55.4654 64.0277 77.438 62.4023 104.224C62.2072 135.865 62.0115 167.505 61.8164 199.146C61.1689 201.903 59.509 203.759 56.8359 204.712C44.002 207.277 31.6973 205.714 19.9219 200.025C9.3 193.328 2.6594 183.855 0 171.607C0 158.521 0 145.435 0 132.349C5.66485 109.894 20.118 98.5664 43.3594 98.3648C47.1747 62.4914 64.1672 34.8545 94.3359 15.4546C130.138 -4.54793 166.271 -5.13387 202.734 13.6968C234.567 32.9622 252.536 61.1847 256.641 98.3648C279.731 98.7673 294.185 110.095 300 132.349Z" fill=""/>
<path opacity="0.929" fill-rule="evenodd" clip-rule="evenodd" d="M39.2583 215.552C43.024 215.928 46.7349 216.124 50.3911 216.138C56.0761 237.591 69.5524 251.361 90.8208 257.447C97.2315 258.427 103.677 259.11 110.157 259.498C109.376 262.818 109.376 266.138 110.157 269.459C83.4626 271.543 62.6618 261.582 47.7544 239.576C43.3458 232.111 40.5137 224.103 39.2583 215.552Z" fill=""/>
<path opacity="0.973" fill-rule="evenodd" clip-rule="evenodd" d="M134.18 245.435C144.729 245.338 155.276 245.435 165.821 245.728C176.772 249.269 181.557 256.788 180.176 268.287C177.982 276.665 172.612 281.645 164.063 283.228C154.688 283.619 145.313 283.619 135.938 283.228C123.728 280.378 118.357 272.664 119.825 260.084C121.988 252.55 126.773 247.667 134.18 245.435Z" fill=""/>
</svg>
