<svg width="300" height="300" viewBox="0 0 300 300" fill="none" xmlns="http://www.w3.org/2000/svg">
<path opacity="0.989" fill-rule="evenodd" clip-rule="evenodd" d="M135.391 0.401427C186.751 -2.91812 229.562 14.3502 263.824 52.2063C297.757 94.2698 307.59 141.518 293.324 193.95C278.756 238.017 250.335 269.555 208.062 288.566C153.54 309 102.935 302.045 56.2449 267.7C15.2747 233.098 -3.3128 188.848 0.482705 134.95C8.28668 77.7677 38.1463 36.8758 90.062 12.2734C104.702 6.15609 119.812 2.19877 135.391 0.401427ZM136.83 24.1453C137.789 65.8742 138.269 107.846 138.269 150.06C138.03 192.031 137.789 234.003 137.55 275.975C87.5883 268.813 52.4524 242.191 32.1413 196.109C16.0031 149.756 22.9584 107.305 53.0071 68.7551C75.3566 43.37 103.297 28.5003 136.83 24.1453Z" fill=""/>
</svg>
