<svg width="301" height="300" viewBox="0 0 301 300" fill="none" xmlns="http://www.w3.org/2000/svg">
<path d="M68.5107 0.154665C69.2369 0.151778 69.963 0.148891 70.7111 0.145916C73.1234 0.137904 75.5356 0.138888 77.9478 0.139944C79.6861 0.136817 81.4244 0.131826 83.1627 0.126973C87.3827 0.116432 91.6028 0.112887 95.8228 0.112174C99.2578 0.111566 102.693 0.108936 106.128 0.104909C115.891 0.0936963 125.655 0.0878046 135.419 0.0887621C136.207 0.0888385 136.207 0.0888385 137.011 0.0889164C137.8 0.0889946 137.8 0.0889946 138.604 0.0890743C147.117 0.0895917 155.629 0.0774092 164.142 0.0594277C172.907 0.0410605 181.672 0.0323233 190.437 0.033421C195.348 0.033842 200.259 0.0304312 205.169 0.0166262C209.353 0.00494105 213.536 0.00231574 217.719 0.0109032C219.848 0.0150247 221.976 0.013861 224.105 0.00408071C235.84 -0.0463082 247.635 0.295805 258.483 5.3034C258.981 5.52354 259.479 5.74368 259.991 5.9705C263.967 7.77335 267.665 9.84336 271.188 12.4324C271.713 12.8168 272.238 13.2012 272.778 13.5973C287.357 24.7868 296.648 40.4103 299.59 58.507C300.147 63.3124 300.045 68.1429 300.038 72.9744C300.041 74.1832 300.044 75.392 300.048 76.6008C300.056 79.8647 300.057 83.1286 300.055 86.3926C300.054 89.1271 300.058 91.8616 300.061 94.5961C300.068 101.053 300.068 107.51 300.064 113.967C300.06 120.606 300.068 127.244 300.082 133.883C300.093 139.603 300.097 145.323 300.095 151.042C300.094 154.45 300.095 157.857 300.104 161.264C300.112 164.471 300.111 167.679 300.102 170.886C300.101 172.055 300.103 173.224 300.108 174.393C300.147 183.718 299.34 192.614 295.96 201.41C295.769 201.914 295.578 202.418 295.381 202.937C288.688 219.892 275.154 233.149 258.523 240.385C257.866 240.653 257.209 240.92 256.532 241.196C255.94 241.438 255.349 241.679 254.739 241.928C243.731 245.995 232.565 245.805 221.013 245.412C218.389 245.327 215.766 245.277 213.141 245.235C212.692 245.228 212.243 245.221 211.78 245.213C210.398 245.192 209.017 245.17 207.636 245.149C202.015 245.063 196.399 244.954 190.781 244.733C165.873 243.777 148.498 245.907 128.57 262.577C125.232 265.365 121.68 267.714 118.02 270.061C116.984 270.758 115.95 271.458 114.92 272.162C105.468 278.587 95.9855 284.966 86.4515 291.267C85.3857 291.972 84.3206 292.678 83.2565 293.386C81.7959 294.356 80.3323 295.322 78.8676 296.287C78.4381 296.573 78.0087 296.859 77.5663 297.155C73.3551 299.911 69.7066 300.311 64.7266 299.821C60.9893 298.72 58.6219 296.686 56.4427 293.449C54.0033 288.568 54.2271 283.571 54.2049 278.235C54.1942 277.257 54.1826 276.278 54.1703 275.3C54.1402 272.739 54.1211 270.179 54.1044 267.619C54.0853 265 54.0557 262.382 54.027 259.763C53.9723 254.636 53.9293 249.509 53.8938 244.383C53.1924 244.167 52.4909 243.952 51.7683 243.73C50.8396 243.443 49.9109 243.156 48.9822 242.869C48.5209 242.727 48.0596 242.586 47.5843 242.441C44.3808 241.447 41.3653 240.309 38.4013 238.727C37.9804 238.508 37.5596 238.289 37.126 238.063C35.9105 237.421 34.7051 236.764 33.5026 236.099C32.8734 235.752 32.2442 235.405 31.5959 235.048C15.6155 225.553 6.05601 209.344 1.48945 191.772C0.614099 187.821 0.272033 183.991 0.27306 179.953C0.270717 179.45 0.268376 178.948 0.265962 178.431C0.258976 176.757 0.256486 175.083 0.254051 173.41C0.250055 172.206 0.24582 171.001 0.241362 169.797C0.22799 165.849 0.221352 161.9 0.215002 157.951C0.212421 156.587 0.209797 155.222 0.207131 153.858C0.194996 147.441 0.18593 141.024 0.180616 134.607C0.174403 127.228 0.157669 119.849 0.131868 112.47C0.112562 106.75 0.103206 101.029 0.101104 95.309C0.0996151 91.9009 0.0940255 88.493 0.07787 85.0849C0.0628802 81.8708 0.0603962 78.6569 0.0668827 75.4428C0.0671948 74.2736 0.0632765 73.1044 0.0544223 71.9353C-0.0188706 61.6693 0.989486 51.1411 5.34517 41.7049C5.56531 41.2072 5.78545 40.7095 6.01226 40.1966C7.81512 36.2207 9.88513 32.5229 12.4741 29.0002C12.8586 28.4753 13.243 27.9505 13.6391 27.4097C24.9597 12.6606 40.5738 3.57338 58.8244 0.597522C62.0584 0.173695 65.2532 0.144972 68.5107 0.154665ZM57.1994 88.3966C54.989 91.7268 54.6786 95.1757 55.3973 99.0577C56.5527 103.047 59.3056 105.887 62.815 108.016C66.9669 109.336 71.0727 109.473 75.3941 109.453C76.3946 109.455 76.3946 109.455 77.4153 109.459C79.6385 109.464 81.8616 109.46 84.0849 109.456C85.6836 109.457 87.2823 109.46 88.881 109.462C92.7654 109.468 96.6499 109.467 100.534 109.463C103.693 109.46 106.851 109.46 110.009 109.461C110.685 109.462 110.685 109.462 111.374 109.462C112.289 109.462 113.204 109.463 114.119 109.463C122.688 109.467 131.258 109.463 139.828 109.456C147.174 109.45 154.52 109.451 161.866 109.457C170.406 109.464 178.946 109.466 187.486 109.462C188.398 109.462 189.309 109.462 190.221 109.461C190.669 109.461 191.117 109.461 191.579 109.461C194.732 109.46 197.885 109.461 201.038 109.464C205.285 109.468 209.532 109.465 213.779 109.458C215.336 109.456 216.894 109.457 218.451 109.46C220.579 109.463 222.707 109.459 224.836 109.453C225.757 109.457 225.757 109.457 226.697 109.461C232.911 109.425 237.378 108.74 241.948 104.33C244.259 101.617 244.898 99.106 245.34 95.6301C244.759 90.8968 242.938 87.5649 239.249 84.5608C235.607 82.2511 232.278 82.344 228.082 82.3568C227.391 82.3539 226.7 82.351 225.987 82.348C223.667 82.34 221.346 82.341 219.025 82.3421C217.363 82.3382 215.701 82.3339 214.039 82.3291C209.99 82.3185 205.941 82.315 201.892 82.3143C198.6 82.3137 195.309 82.3111 192.017 82.307C182.682 82.2958 173.346 82.2899 164.011 82.2909C163.256 82.291 163.256 82.291 162.486 82.291C161.983 82.2911 161.479 82.2911 160.96 82.2912C152.796 82.2917 144.633 82.2795 136.47 82.2615C128.085 82.2432 119.7 82.2344 111.316 82.2355C106.609 82.236 101.903 82.2325 97.1966 82.2187C92.7701 82.2059 88.3439 82.2063 83.9174 82.2156C82.2929 82.2169 80.6684 82.2139 79.044 82.2062C76.8259 82.1964 74.6085 82.2023 72.3904 82.2121C71.4267 82.2023 71.4267 82.2023 70.4434 82.1922C64.7555 82.2479 60.7374 83.8781 57.1994 88.3966ZM85.4763 141.431C82.6103 145.194 82.0039 148.574 82.569 153.259C83.7135 157.145 86.15 160.053 89.5784 162.18C92.5119 163.349 94.9808 163.617 98.1291 163.625C98.5915 163.628 99.0539 163.631 99.5303 163.634C101.073 163.642 102.615 163.641 104.157 163.64C105.266 163.644 106.374 163.648 107.483 163.653C110.49 163.664 113.497 163.667 116.505 163.668C118.385 163.669 120.265 163.672 122.145 163.675C128.709 163.687 135.272 163.692 141.836 163.691C147.948 163.69 154.059 163.704 160.17 163.724C165.423 163.74 170.676 163.747 175.928 163.747C179.063 163.746 182.198 163.75 185.332 163.763C188.282 163.776 191.231 163.776 194.181 163.766C195.26 163.765 196.34 163.768 197.419 163.776C206.241 163.955 206.241 163.955 213.747 159.797C216.968 156.335 217.976 153.22 217.857 148.517C217.341 144.239 215.118 141.468 211.911 138.747C208.778 136.803 205.723 136.53 202.101 136.521C201.638 136.518 201.176 136.515 200.699 136.512C199.157 136.504 197.615 136.505 196.073 136.506C194.964 136.502 193.855 136.498 192.747 136.493C189.739 136.482 186.732 136.479 183.725 136.478C181.845 136.477 179.965 136.475 178.085 136.471C171.521 136.459 164.957 136.454 158.394 136.455C152.282 136.456 146.171 136.443 140.059 136.422C134.807 136.406 129.554 136.399 124.301 136.4C121.167 136.4 118.032 136.396 114.897 136.383C111.948 136.371 108.999 136.371 106.049 136.38C104.97 136.381 103.89 136.378 102.81 136.37C93.2316 136.293 93.2316 136.293 85.4763 141.431Z" fill=""/>
</svg>
