<svg width="300" height="400" viewBox="0 0 300 400" fill="none" xmlns="http://www.w3.org/2000/svg">
<path d="M139.125 0.259575C122.881 2.36812 107.341 8.1471 93.8303 17.206C86.3333 22.2041 72.5106 36.0268 67.5125 43.5238C60.3279 54.2228 55.4079 65.5464 52.2842 78.6663C50.8004 84.6795 50.6442 88.4281 50.3318 117.479L49.9413 149.732H41.5852C36.5872 149.732 31.3549 150.201 28.6216 150.904C15.1893 154.418 4.8028 164.882 1.28856 178.393C-0.429519 185.109 -0.429519 364.257 1.28856 370.973C4.8028 384.484 15.1893 394.948 28.6216 398.463C32.6825 399.478 47.6766 399.634 150.058 399.634C278.602 399.634 271.026 399.946 280.554 394.87C289.535 390.028 297.266 379.486 299.218 369.255C299.687 366.522 299.999 332.629 299.999 273.98C299.999 174.8 300.156 178.861 295.626 169.88C292.815 164.336 286.02 157.463 280.554 154.496C273.994 150.982 268.137 149.732 258.531 149.732H250.175L249.785 117.479C249.472 88.4281 249.316 84.6795 247.832 78.6663C242.99 58.596 234.556 43.5238 220.421 29.3888C205.974 14.9413 190.745 6.50712 171.144 2.05574C164.662 0.571953 145.294 -0.521368 139.125 0.259575ZM163.334 34.4649C170.675 36.0268 180.125 39.8534 185.904 43.68C201.054 53.598 212.378 70.3883 215.579 87.6471C216.126 90.3804 216.438 103.656 216.438 120.993V149.732H150.058H83.6781V120.603C83.6781 88.8966 83.9904 86.2414 88.2856 75.152C96.0951 54.8475 114.525 39.3067 136.392 34.543C142.639 33.1373 157.009 33.1373 163.334 34.4649ZM161.46 218.533C173.018 222.906 180.906 232.59 182.936 244.929C184.732 256.253 179.656 268.67 170.363 275.776L166.536 278.666L166.302 300.454L166.068 322.164L163.725 325.601C156.15 336.378 139.828 334.816 134.83 322.945C133.893 320.524 133.658 316.229 133.658 299.361V278.744L129.676 275.776C120.46 268.748 115.384 256.253 117.181 245.085C119.992 227.436 135.455 215.097 152.792 216.659C155.369 216.893 159.273 217.752 161.46 218.533Z" fill=""/>
</svg>
