<svg width="300" height="300" viewBox="0 0 300 300" fill="none" xmlns="http://www.w3.org/2000/svg">
<path opacity="0.942" fill-rule="evenodd" clip-rule="evenodd" d="M107.147 0.0106831C160.81 -0.580095 198.861 23.3318 221.299 71.7451C236.557 114.287 230.376 153.315 202.755 188.829C234.063 220.562 265.521 252.17 297.126 283.65C301.091 288.6 300.953 293.409 296.714 298.08C292.138 300.89 287.743 300.616 283.527 297.255C252.059 265.637 220.464 234.167 188.743 202.846C153.254 230.476 114.242 236.66 71.7059 221.398C26.2543 200.635 2.35253 165.18 0 115.033C1.42621 72.0312 20.1082 39.0499 56.046 16.0891C71.9837 6.88746 89.0176 1.52799 107.147 0.0106831ZM113.74 18.1504C155.843 20.2943 185.926 40.3576 203.991 78.3414C219.188 123.217 208.885 161.008 173.083 191.715C138.322 215.358 102.331 217.282 65.1123 197.486C23.3819 168.169 10.057 129.003 25.1383 79.9904C34.9966 55.5612 51.8928 37.8337 75.827 26.808C88.0648 21.6416 100.703 18.7557 113.74 18.1504Z" fill=""/>
</svg>
