<svg width="300" height="267" viewBox="0 0 300 267" fill="none" xmlns="http://www.w3.org/2000/svg">
<path d="M73.9166 0.376818C55.2182 2.72145 39.5677 10.4001 26.3205 23.7645C14.4215 35.7222 7.2704 48.3832 3.16729 64.8543C-4.10108 93.4002 1.17435 121.536 18.6419 147.972C29.8375 164.912 44.3156 180.445 70.8686 204.126C87.75 219.19 139.273 263.152 141.794 264.617C144.138 266.024 145.018 266.2 150 266.2C154.982 266.2 155.862 266.024 158.206 264.617C160.727 263.152 212.367 219.131 229.131 204.126C255.802 180.327 270.162 164.853 281.358 147.972C298.826 121.536 304.101 93.4002 296.833 64.8543C292.73 48.3832 285.578 35.7222 273.679 23.7645C261.839 11.8655 249.178 5.00747 232.59 1.49052C224.266 -0.267957 208.909 -0.443804 201.641 1.19744C181.359 5.59363 165.826 15.7342 151.641 33.7879L150 35.8394L148.417 33.7879C134.408 16.0859 119.109 5.94532 99.5904 1.49052C93.7874 0.142354 80.423 -0.443804 73.9166 0.376818Z" fill=""/>
</svg>
