<svg width="218" height="300" viewBox="0 0 218 300" fill="none" xmlns="http://www.w3.org/2000/svg">
<path opacity="0.989" fill-rule="evenodd" clip-rule="evenodd" d="M97.3729 0C104.795 0 112.217 0 119.639 0C161.315 6.03295 191.1 28.1033 208.994 66.2109C217.462 87.3059 219.416 108.986 214.853 131.25C208.966 154.574 199.982 176.645 187.9 197.461C168.757 230.273 146.882 261.132 122.275 290.039C119.306 293.888 115.889 297.208 112.021 300C109.678 300 107.334 300 104.99 300C101.123 297.208 97.7052 293.888 94.7362 290.039C70.1298 261.132 48.2544 230.273 29.1112 197.461C17.0297 176.645 8.04531 154.574 2.1581 131.25C-5.42534 88.534 6.97703 52.8896 39.3651 24.3164C56.3919 10.7255 75.7278 2.62 97.3729 0ZM101.475 54.4922C125.472 52.9639 143.733 62.3391 156.26 82.6172C167.701 107.438 163.893 129.606 144.834 149.121C125.479 164.767 104.58 167.111 82.1386 156.152C60.3048 142.26 51.4179 122.436 55.4784 96.6797C62.1534 73.1074 77.4856 59.0449 101.475 54.4922Z" fill=""/>
</svg>
