<svg style="transition: .3s" width="300" height="263" viewBox="0 0 300 263" fill="none" xmlns="http://www.w3.org/2000/svg">
<path opacity="0.962" fill-rule="evenodd" clip-rule="evenodd" d="M300 71.9177C300 78.1679 300 84.4175 300 90.6677C297.737 107.696 290.998 122.735 279.785 135.785C238.46 177.305 197.347 219.004 156.445 260.883C152.149 263.617 147.851 263.617 143.555 260.883C102.653 219.004 61.5398 177.305 20.2148 135.785C9.0017 122.735 2.26341 107.696 0 90.6677C0 84.4175 0 78.1679 0 71.9177C4.79215 39.7779 22.175 17.4145 52.1484 4.82789C80.9783 -4.6578 107.346 -0.16559 131.25 18.3044C137.411 24.5628 143.661 30.7151 150 36.7615C157.169 29.6888 164.395 22.7552 171.68 15.9607C197.848 -2.08577 225.582 -4.82016 254.883 7.75757C280.683 21.5626 295.723 42.9496 300 71.9177ZM75.5859 19.1834C91.5738 18.5562 105.832 23.146 118.359 32.9529C126.953 41.5468 135.547 50.1402 144.141 58.7341C148.047 60.6871 151.953 60.6871 155.859 58.7341C164.453 50.1402 173.047 41.5468 181.641 32.9529C204.369 16.237 228.002 14.8698 252.539 28.8513C273.443 43.6152 282.721 63.83 280.371 89.4959C278.682 100.486 274.58 110.447 268.066 119.379C229.013 159.507 189.657 199.35 150 238.91C111.531 200.344 73.1525 161.672 34.8633 122.894C19.1551 103.847 15.2489 82.5584 23.1445 59.0271C32.9793 35.6107 50.4598 22.3297 75.5859 19.1834Z" fill=""/>
<path d="M138.324 80.0548C138.136 78.179 136.305 76.3023 135.213 74.8326C133.107 71.9979 130.648 70.0607 128.157 67.6659C125.058 64.6859 121.483 61.4282 118.074 58.777C115.043 56.4191 111.773 54.8661 109.324 51.8048C107.627 49.684 104.733 47.085 102.324 45.9437C97.472 43.6453 92.6547 40.8851 87.713 38.9437C85.7179 38.1599 83.7934 37.0412 81.8241 36.1659C78.4043 34.646 73.5468 35.9067 69.9352 35.3048C65.8416 34.6225 59.1391 35.2269 55.3241 36.9437C53.1334 37.9295 50.1464 37.7325 48.3241 39.5548C46.6889 41.19 45.6683 43.0694 44.5463 44.8326C43.14 47.0424 42.7932 49.6104 41.5741 51.8048C41.3038 52.2913 41.5263 53.2805 41.0463 53.5548C38.9918 54.7288 37.3247 57.0542 35.6574 58.7215C34.1329 60.246 34.71 61.3877 34.2963 63.2492C33.807 65.4512 32.7526 67.7763 32.213 70.0548C31.0801 74.8381 30.3549 81.5855 31.8241 86.3604C33.6988 92.4532 39.4882 97.5924 43.0463 102.777C45.4771 106.319 48.9206 108.965 51.1018 112.721C53.6043 117.031 56.0597 121.297 58.8241 125.444C60.0327 127.257 61.0987 129.138 62.3241 130.944C64.2554 133.79 66.7307 136.424 68.5463 139.277C69.8991 141.403 71.9649 143.31 73.5741 145.277C75.4284 147.543 77.2993 149.971 79.3241 152.055C83.1511 155.994 87.5204 159.251 91.3518 163.083C94.0644 165.795 97.3085 167.842 99.8241 170.777C101.401 172.617 104.142 174.264 105.324 176.333C107.958 180.942 112.632 185.725 116.435 189.444C120.522 193.44 124.73 197.02 129.435 200.277C131.411 201.645 133.126 203.357 134.824 205.055C136.589 206.819 138.143 209.275 140.074 210.777C142.19 212.423 143.833 215.088 146.074 216.583C147.544 217.563 148.589 219.691 150.102 220.555C150.526 220.797 151.384 221.855 151.824 221.305C152.769 220.123 153.608 218.334 154.213 216.944C156.532 211.618 157.772 206.641 161.88 202.305C163.488 200.607 166.145 200.152 168.13 198.999C170.318 197.729 172.333 196.418 174.296 194.833C176.865 192.758 179.531 190.971 182.213 189.055C185.163 186.948 187.639 184.05 189.824 181.221C191.586 178.942 191.868 176.011 193.935 173.944C195.919 171.96 197.283 169.977 198.824 167.666C200.474 165.19 203.333 164.367 205.407 162.499C209.384 158.921 214.156 156.223 217.935 152.444C220.38 149.999 222.341 147.09 224.546 144.444C227.429 140.984 230.779 138.341 234.074 135.333C238.634 131.169 245.191 127.322 248.074 121.555C249.856 117.991 252.61 114.571 254.824 111.249C257.59 107.1 261.466 102.708 263.213 97.9437C264.409 94.6821 269.024 89.4744 268.074 86.0548C266.807 81.4926 267.159 76.4795 266.435 71.777C265.693 66.9544 264.516 62.5106 262.935 57.9437C261.189 52.8983 255.662 50.3929 252.074 46.8048C249.67 44.4005 246.67 41.4306 243.574 40.0548C238.131 37.6358 232.166 35.974 226.824 33.4437C223.416 31.8292 221.486 31.0548 217.713 31.0548C215.433 31.0548 212.932 30.7291 210.824 31.6659C209.111 32.4272 208.453 34.1651 206.574 34.5826C202.896 35.4 196.579 39.7497 195.213 43.1659C193.794 46.7125 188.849 49.3601 185.824 51.3048C182.617 53.3668 178.196 54.3197 175.324 56.8326C173.812 58.1554 171.834 58.7251 170.519 60.3326C168.788 62.4473 166.156 64.431 164.213 66.4437C161.726 69.0191 159.256 71.6231 156.713 74.1659C153.733 77.1462 149.691 78.8356 146.435 81.4992C145.042 82.6389 143.066 85.0548 141.074 85.0548C138.791 85.0548 136.668 85.5548 134.435 85.5548C132.583 85.5548 130.731 85.5548 128.88 85.5548C125.685 85.5548 120.486 85.9826 117.546 84.5548C111.386 81.5626 104.783 78.4832 99.0463 74.8326C94.1225 71.6993 84.8798 72.9448 79.2685 73.0548C76.7769 73.1037 72.9876 77.0053 73.3518 79.5548C73.6231 81.4537 75.7593 84.9901 77.0741 86.3048C78.8736 88.1044 79.9416 91.2899 81.0741 93.5548C84.8483 101.103 90.1017 108.31 95.3241 114.944C100.13 121.049 106.073 126.696 111.935 131.777C115.077 134.5 118.253 137.248 121.713 139.555C125.89 142.34 128.284 146.48 131.519 150.194C135.645 154.932 139.747 159.522 144.074 164.055C146.064 166.139 149.481 169.698 152.407 168.527C161.69 164.814 167.094 157.477 174.824 151.444C180.573 146.957 185.749 141.258 190.824 136.055C194.14 132.655 197.11 128.863 200.157 125.221C203.832 120.83 208.088 117.032 211.991 112.86C213.952 110.763 215.148 107.915 216.519 105.416C217.711 103.242 219.329 101.334 220.519 99.1381C222.399 95.6669 226.119 93.6929 228.324 90.4437C229.884 88.1448 230.928 87.3594 230.824 84.4437C230.777 83.1331 229.36 79.3687 228.435 78.4437C225.829 75.8372 222.313 74.3901 218.935 73.0548C215.41 71.6611 210.702 73.5548 206.991 73.5548C203.685 73.5548 202.429 76.0598 200.574 78.3048C198.29 81.0692 195.854 83.6739 193.546 86.4437C188.975 91.9294 183.617 96.7619 178.574 101.805C176.122 104.257 173.824 107.095 171.63 109.777C170.55 111.097 168.498 112.788 167.824 114.305C165.22 120.165 159.117 118.42 154.713 121.944C151.582 124.448 147.071 120.977 144.074 120.055C141.761 119.343 139.631 117.33 137.352 116.333C134.905 115.262 132.75 113.525 130.324 112.555" fill="var(--background)" stroke="" stroke-width="50" stroke-linecap="round"/>
</svg>
