<svg width="300" height="300" viewBox="0 0 300 300" fill="none" xmlns="http://www.w3.org/2000/svg">
<g clip-path="url(#clip0_612_485)">
<path opacity="0.993" fill-rule="evenodd" clip-rule="evenodd" d="M246.015 34.6202C252.368 40.973 258.721 47.3262 265.074 53.6789C301.046 100.381 308.987 151.412 288.897 206.77C282.789 221.278 274.848 234.605 265.074 246.752C258.721 253.105 252.368 259.458 246.015 265.811C199.313 301.783 148.282 309.724 92.9238 289.634C78.4168 283.526 65.0893 275.585 52.9419 265.811C46.5891 259.458 40.2359 253.105 33.8831 246.752C-2.08899 200.048 -10.0301 149.018 10.0597 93.6609C16.168 79.1534 24.1093 65.826 33.8831 53.6789C40.2359 47.3262 46.5891 40.973 52.9419 34.6202C99.6439 -1.35209 150.674 -9.29328 206.033 10.7968C220.541 16.9051 233.868 24.8464 246.015 34.6202ZM203.34 93.868C208.444 99.0748 209.204 104.806 205.619 111.062C192.845 124.251 179.932 137.302 166.88 150.216C179.932 163.129 192.845 176.18 205.619 189.369C209.801 196.853 208.281 202.93 201.061 207.599C196.713 209.422 192.57 209.007 188.632 206.356C175.443 193.582 162.392 180.669 149.479 167.617C136.565 180.669 123.514 193.582 110.325 206.356C102.841 210.538 96.7645 209.018 92.0951 201.798C90.2726 197.45 90.6869 193.307 93.3381 189.369C106.112 176.18 119.025 163.129 132.077 150.216C119.025 137.302 106.112 124.251 93.3381 111.062C89.1564 103.578 90.6757 97.5016 97.8956 92.8322C102.244 91.0096 106.387 91.4239 110.325 94.0752C123.514 106.849 136.565 119.762 149.479 132.814C162.392 119.762 175.443 106.849 188.632 94.0752C193.546 90.8302 198.448 90.761 203.34 93.868Z" fill=""/>
</g>
<defs>
<clipPath id="clip0_612_485">
<rect width="300" height="300" fill="white"/>
</clipPath>
</defs>
</svg>
