<svg width="263" height="300" viewBox="0 0 263 300" fill="none" xmlns="http://www.w3.org/2000/svg">
<path opacity="0.991" fill-rule="evenodd" clip-rule="evenodd" d="M93.5883 0.0374928C118.786 -0.0624907 143.983 0.0374988 169.179 0.337455C171.817 1.30731 174.117 2.80711 176.078 4.83689C178.53 9.14183 180.831 13.5413 182.977 18.0352C207.372 18.5352 231.768 18.8351 256.168 18.9351C259.467 19.835 261.567 21.9347 262.467 25.2343C262.867 33.4333 262.867 41.6322 262.467 49.8312C261.567 53.1308 259.467 55.2306 256.168 56.1304C172.978 56.5304 89.7889 56.5304 6.59919 56.1304C3.2996 55.2306 1.19986 53.1308 0.299977 49.8312C-0.0999924 41.6322 -0.0999924 33.4333 0.299977 25.2343C1.01209 22.7091 2.5119 20.8093 4.79941 19.535C29.7632 18.8449 54.7599 18.345 79.79 18.0352C81.9365 13.5413 84.2366 9.14183 86.6891 4.83689C88.7781 2.83362 91.0776 1.23384 93.5883 0.0374928Z" fill=""/>
<path opacity="0.997" fill-rule="evenodd" clip-rule="evenodd" d="M18.5977 75.0281C93.788 75.0281 168.979 75.0281 244.169 75.0281C240.117 143.457 235.618 211.848 230.671 280.202C227.205 290.668 220.106 297.167 209.374 299.7C157.38 300.1 105.387 300.1 53.3933 299.7C39.2771 295.776 31.778 286.477 30.8961 271.803C26.7964 206.209 22.6969 140.617 18.5977 75.0281Z" fill=""/>
</svg>
