<svg width="302" height="300" viewBox="0 0 302 300" fill="none" xmlns="http://www.w3.org/2000/svg">
<path opacity="0.995" fill-rule="evenodd" clip-rule="evenodd" d="M139.452 0.113696C199.887 -1.87334 246.62 22.1848 279.649 72.2883C305.078 117.552 307.845 164.178 287.953 212.167C265.438 258.937 228.712 287.572 177.774 298.074C116.208 306.66 66.4946 286.541 28.6349 237.715C0.912873 196.811 -6.11299 152.527 7.55735 104.863C26.817 50.2599 64.6079 16.3016 120.929 2.98791C127.171 1.86441 133.345 0.90634 139.452 0.113696ZM149.032 55.0431C156.98 55.1223 161.983 58.9545 164.042 66.5399C164.255 92.7272 164.468 118.914 164.681 145.102C177.029 157.45 189.378 169.799 201.726 182.147C207.368 191.196 205.559 198.328 196.297 203.544C191.396 205.034 186.925 204.183 182.884 200.989C168.939 187.044 154.994 173.098 141.048 159.153C140.035 157.767 139.183 156.277 138.494 154.682C137.442 125.331 137.229 95.9501 137.855 66.5399C139.141 60.2511 142.867 56.4188 149.032 55.0431Z" fill=""/>
</svg>
