<svg width="254" height="300" viewBox="0 0 254 300" fill="none" xmlns="http://www.w3.org/2000/svg">
<path d="M17.5907 0.783813C10.613 2.48425 3.92859 8.11327 1.34862 14.5046L0 17.8468V150.07V282.293L1.34862 285.636C5.27721 295.311 16.7112 301.585 27.031 299.65C32.191 298.711 35.7677 296.835 40.224 292.731C42.2177 290.854 62.5056 271.446 85.1976 249.633C107.948 227.762 126.712 209.878 126.946 209.878C127.181 209.878 145.944 227.762 168.695 249.575C218.535 297.539 216.835 295.956 220.47 297.597C232.608 303.168 247.736 297.539 252.544 285.636L253.892 282.293V150.07V17.8468L252.544 14.5046C250.843 10.3414 246.504 5.41603 242.634 3.30515C236.067 -0.212993 242.81 -0.0370857 126.653 0.0215499C45.5012 0.0801855 19.8188 0.256092 17.5907 0.783813ZM228.386 148.428V271.68L223.578 266.99C213.844 257.608 133.572 180.737 130.347 177.688L126.946 174.521L123.604 177.688C120.32 180.737 40.0481 257.608 30.3146 266.99L25.5065 271.68V148.428V25.1762H126.946H228.386V148.428Z" fill=""/>
</svg>
