<svg width="300" height="300" viewBox="0 0 300 300" fill="none" xmlns="http://www.w3.org/2000/svg">
<path opacity="0.997" fill-rule="evenodd" clip-rule="evenodd" d="M49.2188 0C57.0312 0 64.8439 0 72.6562 0C72.6562 7.81248 72.6562 15.625 72.6562 23.4375C124.219 23.4375 175.781 23.4375 227.344 23.4375C227.344 15.625 227.344 7.81248 227.344 0C235.156 0 242.969 0 250.781 0C250.781 7.81248 250.781 15.625 250.781 23.4375C257.62 23.3399 264.456 23.4376 271.289 23.7305C286.629 27.4499 296.2 36.9226 300 52.1484C300 125.196 300 198.242 300 271.289C296.094 286.523 286.523 296.094 271.289 300C190.43 300 109.57 300 28.7109 300C13.4766 296.094 3.90625 286.523 0 271.289C0 198.242 0 125.196 0 52.1484C3.80036 36.9226 13.3707 27.4499 28.7109 23.7305C35.5441 23.4376 42.38 23.3399 49.2188 23.4375C49.2188 15.625 49.2188 7.81248 49.2188 0ZM35.1562 46.875C39.8438 46.875 44.5312 46.875 49.2188 46.875C49.2188 54.6875 49.2188 62.5002 49.2188 70.3125C57.0312 70.3125 64.8439 70.3125 72.6562 70.3125C72.6562 62.5002 72.6562 54.6875 72.6562 46.875C124.219 46.875 175.781 46.875 227.344 46.875C227.344 54.6875 227.344 62.5002 227.344 70.3125C235.156 70.3125 242.969 70.3125 250.781 70.3125C250.781 62.5002 250.781 54.6875 250.781 46.875C256.67 46.6809 262.529 46.9738 268.359 47.7539C273.065 49.8345 275.702 53.4478 276.27 58.5938C276.562 67.967 276.66 77.342 276.562 86.7188C192.188 86.7188 107.812 86.7188 23.4375 86.7188C23.1938 76.1473 23.4868 65.6004 24.3164 55.0781C26.5273 50.4162 30.1406 47.6819 35.1562 46.875ZM23.4375 110.156C107.812 110.156 192.188 110.156 276.562 110.156C276.66 161.719 276.562 213.282 276.27 264.844C275.586 271.777 271.777 275.586 264.844 276.27C188.281 276.66 111.719 276.66 35.1562 276.27C28.2227 275.586 24.4141 271.777 23.7305 264.844C23.4375 213.282 23.3398 161.719 23.4375 110.156Z" fill=""/>
<path fill-rule="evenodd" clip-rule="evenodd" d="M44.5312 134.766C52.3437 134.766 60.1564 134.766 67.9688 134.766C67.9688 142.578 67.9688 150.391 67.9688 158.203C60.1564 158.203 52.3437 158.203 44.5312 158.203C44.5312 150.391 44.5312 142.578 44.5312 134.766Z" fill=""/>
<path fill-rule="evenodd" clip-rule="evenodd" d="M91.4062 134.766C99.2186 134.766 107.031 134.766 114.844 134.766C114.844 142.578 114.844 150.391 114.844 158.203C107.031 158.203 99.2186 158.203 91.4062 158.203C91.4062 150.391 91.4062 142.578 91.4062 134.766Z" fill=""/>
<path fill-rule="evenodd" clip-rule="evenodd" d="M138.281 134.766C146.094 134.766 153.906 134.766 161.719 134.766C161.719 142.578 161.719 150.391 161.719 158.203C153.906 158.203 146.094 158.203 138.281 158.203C138.281 150.391 138.281 142.578 138.281 134.766Z" fill=""/>
<path fill-rule="evenodd" clip-rule="evenodd" d="M185.156 134.766C192.969 134.766 200.781 134.766 208.594 134.766C208.594 142.578 208.594 150.391 208.594 158.203C200.781 158.203 192.969 158.203 185.156 158.203C185.156 150.391 185.156 142.578 185.156 134.766Z" fill=""/>
<path fill-rule="evenodd" clip-rule="evenodd" d="M232.031 134.766C239.844 134.766 247.656 134.766 255.469 134.766C255.469 142.578 255.469 150.391 255.469 158.203C247.656 158.203 239.844 158.203 232.031 158.203C232.031 150.391 232.031 142.578 232.031 134.766Z" fill=""/>
<path fill-rule="evenodd" clip-rule="evenodd" d="M39.5508 181.641C47.3633 181.641 55.176 181.641 62.9883 181.641C62.9883 189.453 62.9883 197.266 62.9883 205.078C55.176 205.078 47.3633 205.078 39.5508 205.078C39.5508 197.266 39.5508 189.453 39.5508 181.641Z" fill=""/>
<path fill-rule="evenodd" clip-rule="evenodd" d="M86.4258 181.641C94.2381 181.641 102.051 181.641 109.863 181.641C109.863 189.453 109.863 197.266 109.863 205.078C102.051 205.078 94.2381 205.078 86.4258 205.078C86.4258 197.266 86.4258 189.453 86.4258 181.641Z" fill=""/>
<path fill-rule="evenodd" clip-rule="evenodd" d="M138.281 181.641C146.094 181.641 153.906 181.641 161.719 181.641C161.719 189.453 161.719 197.266 161.719 205.078C153.906 205.078 146.094 205.078 138.281 205.078C138.281 197.266 138.281 189.453 138.281 181.641Z" fill=""/>
<path fill-rule="evenodd" clip-rule="evenodd" d="M185.156 181.641C192.969 181.641 200.781 181.641 208.594 181.641C208.594 189.453 208.594 197.266 208.594 205.078C200.781 205.078 192.969 205.078 185.156 205.078C185.156 197.266 185.156 189.453 185.156 181.641Z" fill=""/>
<path fill-rule="evenodd" clip-rule="evenodd" d="M232.031 181.641C239.844 181.641 247.656 181.641 255.469 181.641C255.469 189.453 255.469 197.266 255.469 205.078C247.656 205.078 239.844 205.078 232.031 205.078C232.031 197.266 232.031 189.453 232.031 181.641Z" fill=""/>
<path fill-rule="evenodd" clip-rule="evenodd" d="M39.5508 228.516C47.3633 228.516 55.176 228.516 62.9883 228.516C62.9883 236.328 62.9883 244.141 62.9883 251.953C55.176 251.953 47.3633 251.953 39.5508 251.953C39.5508 244.141 39.5508 236.328 39.5508 228.516Z" fill=""/>
<path fill-rule="evenodd" clip-rule="evenodd" d="M86.4258 228.516C94.2381 228.516 102.051 228.516 109.863 228.516C109.863 236.328 109.863 244.141 109.863 251.953C102.051 251.953 94.2381 251.953 86.4258 251.953C86.4258 244.141 86.4258 236.328 86.4258 228.516Z" fill=""/>
<path fill-rule="evenodd" clip-rule="evenodd" d="M138.281 228.516C146.094 228.516 153.906 228.516 161.719 228.516C161.719 236.328 161.719 244.141 161.719 251.953C153.906 251.953 146.094 251.953 138.281 251.953C138.281 244.141 138.281 236.328 138.281 228.516Z" fill=""/>
<path fill-rule="evenodd" clip-rule="evenodd" d="M185.156 228.516C192.969 228.516 200.781 228.516 208.594 228.516C208.594 236.328 208.594 244.141 208.594 251.953C200.781 251.953 192.969 251.953 185.156 251.953C185.156 244.141 185.156 236.328 185.156 228.516Z" fill=""/>
</svg>
