<svg width="300" height="300" viewBox="0 0 300 300" fill="none" xmlns="http://www.w3.org/2000/svg">
<path opacity="0.989" fill-rule="evenodd" clip-rule="evenodd" d="M83.7057 0.11413C88.0008 -0.495746 90.5676 1.33863 91.4066 5.61719C91.8533 87.7042 91.8533 169.792 91.4066 251.879C91.2037 253.522 90.6452 255.012 89.7325 256.35C69.6431 269.649 49.5538 282.949 29.4644 296.247C18.696 299.589 9.87903 296.723 3.01342 287.649C1.85842 285.466 0.965578 283.173 0.334839 280.77C-0.111613 209.001 -0.111613 137.232 0.334839 65.4629C1.69958 60.257 4.48979 56.0156 8.70541 52.7371C33.8247 35.2904 58.825 17.7494 83.7057 0.11413Z" fill=""/>
<path opacity="0.996" fill-rule="evenodd" clip-rule="evenodd" d="M115.179 0.109944C117.508 -0.107289 119.741 0.236652 121.875 1.14177C143.811 15.6749 165.574 30.4644 187.166 45.5102C187.613 129.432 187.613 213.353 187.166 297.275C186.831 298.536 186.05 299.339 184.822 299.683C182.502 300.245 180.27 300.015 178.126 298.995C156.181 284.476 134.417 269.686 112.835 254.626C112.389 170.705 112.389 86.7831 112.835 2.86147C113.297 1.58875 114.078 0.671531 115.179 0.109944Z" fill=""/>
<path opacity="0.996" fill-rule="evenodd" clip-rule="evenodd" d="M276.564 2.17627C288.345 2.25317 296.046 7.9855 299.667 19.3733C300.113 91.1421 300.113 162.912 299.667 234.68C298.302 239.886 295.512 244.128 291.296 247.406C266.296 264.832 241.296 282.259 216.296 299.685C213.421 300.512 211.077 299.709 209.265 297.278C208.818 213.356 208.818 129.434 209.265 45.5128C209.515 44.8827 209.85 44.309 210.269 43.7931C229.019 31.182 247.769 18.5708 266.519 5.95962C269.733 4.05935 273.081 2.79825 276.564 2.17627Z" fill=""/>
</svg>
