<svg width="300" height="300" viewBox="0 0 300 300" fill="none" xmlns="http://www.w3.org/2000/svg">
<path opacity="0.989" fill-rule="evenodd" clip-rule="evenodd" d="M137.109 0C145.898 0 154.688 0 163.477 0C191.721 3.00144 217.307 12.8647 240.234 29.5898C241.237 30.2538 241.53 31.1327 241.113 32.2266C229.59 47.0703 218.067 61.9143 206.543 76.7578C178.471 56.4252 148.1 52.226 115.43 64.1602C80.7545 79.8773 61.5164 106.733 57.7148 144.727C57.1508 182.791 73.0687 211.6 105.469 231.152C135.157 246.347 164.845 246.347 194.531 231.152C215.445 219.316 229.898 202.031 237.891 179.297C208.596 178.711 179.299 178.516 150 178.711C150 159.57 150 140.43 150 121.289C200 121.289 250 121.289 300 121.289C300 135.156 300 149.023 300 162.891C292.652 221.64 262.183 263.535 208.594 288.574C193.837 294.607 178.603 298.416 162.891 300C154.297 300 145.703 300 137.109 300C78.3598 292.652 36.4652 262.183 11.4258 208.594C5.39293 193.837 1.58433 178.603 0 162.891C0 154.297 0 145.703 0 137.109C7.34812 78.3598 37.8169 36.4652 91.4062 11.4258C106.162 5.39293 121.397 1.58433 137.109 0Z" fill=""/>
</svg>
