<svg width="300" height="307" viewBox="0 0 300 307" fill="none" xmlns="http://www.w3.org/2000/svg">
<path d="M130.929 0.894961C110.197 3.38529 86.9746 11.4166 69.1065 22.3118C56.4681 29.9695 42.2733 42.1721 32.8723 53.3786C11.2687 79.2157 0 109.722 0 142.47C0 178.268 13.3232 211.576 38.2265 238.098L43.5184 243.764L43.7052 267.982L43.892 292.201L45.4484 295.314C47.3784 299.298 51.1762 303.034 55.0984 304.964C59.083 306.894 65.9313 307.392 70.0404 306.022C71.5968 305.462 81.9939 299.672 93.1381 293.135L113.434 281.243L122.213 282.8C133.481 284.854 147.116 285.85 156.268 285.352C197.67 283.111 232.783 267.484 260.239 239.219C280.597 218.3 292.862 194.642 298.279 165.817C300.146 155.793 300.582 136.867 299.15 125.66C290.932 60.5382 236.705 8.80174 168.221 0.832703C158.571 -0.287943 140.454 -0.287943 130.929 0.894961ZM169.342 23.9305C197.856 28.2263 223.009 40.6779 242.744 60.3515C278.356 95.8386 287.633 147.015 266.465 191.467C241.686 243.515 182.105 271.905 122.96 259.826C114.306 258.021 110.259 257.896 106.399 259.266C104.905 259.764 95.2549 265.181 84.9823 271.282L66.3049 282.364L65.9936 259.889L65.6823 237.414L64.0013 233.803C62.8807 231.375 60.3281 228.137 56.2191 223.841C46.1955 213.444 39.5962 204.043 33.9307 192.152C18.802 160.338 18.802 125.1 33.8684 93.5351C40.53 79.7137 47.4407 70.126 58.8962 59.044C80.9356 37.6895 107.956 25.6737 140.703 22.6853C145.995 22.1872 162.805 22.9343 169.342 23.9305Z" fill=""/>
</svg>
