<svg width="323" height="300" viewBox="0 0 323 300" fill="none" xmlns="http://www.w3.org/2000/svg">
<path opacity="0.986" fill-rule="evenodd" clip-rule="evenodd" d="M146.741 0.184597C185.903 -1.33365 223.039 6.51343 258.148 23.7259C310.248 53.1088 330.474 97.2073 318.825 156.021C308.258 190.311 287.369 216.284 256.158 233.94C231.976 247.115 206.114 254.409 178.572 255.823C163.298 256.25 148.045 256.029 132.815 255.16C111.274 270.242 89.3905 284.831 67.1648 298.927C61.2092 301.431 58.6674 299.552 59.5388 293.29C64.5269 274.664 69.7212 256.096 75.1224 237.587C67.434 232.631 59.6979 227.658 51.9127 222.666C31.3847 208.33 16.2431 189.652 6.48794 166.632C-5.87479 129.403 -0.569677 94.9201 22.4032 63.1824C46.3324 33.1078 77.1682 13.7663 114.911 5.15811C125.527 2.9008 136.137 1.24296 146.741 0.184597ZM46.6076 90.371C63.8505 90.2603 81.092 90.371 98.3322 90.7026C104.442 93.0899 106.32 97.4002 103.969 103.634C102.416 105.845 100.317 107.282 97.669 107.944C92.1471 108.276 86.6212 108.386 81.0907 108.276C81.2014 127.95 81.0907 147.623 80.7591 167.295C75.952 173.649 70.6469 174.091 64.8438 168.621C64.2722 167.569 63.8299 166.463 63.5176 165.305C63.186 146.297 63.0753 127.287 63.186 108.276C57.8763 108.386 52.5713 108.276 47.2708 107.944C40.4586 105.7 38.3586 101.169 40.971 94.3498C42.5106 92.43 44.3896 91.1038 46.6076 90.371ZM126.184 90.371C132.588 90.3113 137.12 93.1853 139.778 98.9918C147.648 119.726 155.384 140.504 162.988 161.326C164.374 169.447 160.947 173.094 152.709 172.268C150.748 172.116 149.09 171.342 147.736 169.947C145.943 165.368 144.063 160.836 142.099 156.353C132.376 156.021 122.649 155.911 112.921 156.021C111.42 160.744 109.652 165.386 107.616 169.947C102.273 173.681 97.2997 173.238 92.6955 168.621C91.7618 165.072 91.9827 161.535 93.3587 158.011C101.133 137.38 109.09 116.823 117.232 96.3392C119.571 93.245 122.555 91.2556 126.184 90.371ZM176.582 90.371C181.311 90.245 184.737 92.2344 186.861 96.3392C187.192 115.79 187.303 135.242 187.192 154.695C194.711 154.584 202.227 154.695 209.739 155.027C216.367 157.891 217.804 162.423 214.049 168.621C212.766 169.683 211.33 170.457 209.739 170.942C198.466 171.384 187.192 171.384 175.919 170.942C173.554 170.478 171.675 169.262 170.282 167.295C169.186 143.699 168.965 120.048 169.619 96.3392C170.98 93.18 173.301 91.1906 176.582 90.371ZM227.644 90.371C232.235 89.9585 235.661 91.7271 237.922 95.6761C238.75 103.596 239.192 111.554 239.248 119.549C248.22 110.356 257.393 101.404 266.768 92.692C273.756 90.7755 277.956 93.428 279.368 100.65C278.946 102.138 278.393 103.575 277.71 104.96C270.305 112.365 262.9 119.77 255.495 127.175C263.644 137.836 271.712 148.557 279.7 159.337C281.539 164.206 280.324 168.074 276.052 170.942C272.613 172.418 269.298 172.197 266.105 170.279C258.001 160.079 250.043 149.801 242.232 139.443C241.139 140.204 240.144 141.088 239.248 142.096C239.028 149.39 238.806 156.685 238.585 163.979C237.893 169.203 234.909 172.076 229.633 172.6C224.357 172.076 221.373 169.203 220.681 163.979C220.238 142.096 220.238 120.212 220.681 98.3286C221.504 94.3034 223.825 91.6508 227.644 90.371Z" fill=""/>
<path opacity="0.902" fill-rule="evenodd" clip-rule="evenodd" d="M127.51 112.917C131.068 121.591 134.383 130.433 137.457 139.443C131.062 140.105 124.652 140.326 118.227 140.106C121.058 130.949 124.152 121.886 127.51 112.917Z" fill=""/>
</svg>
