<svg width="300" height="300" viewBox="0 0 300 300" fill="none" xmlns="http://www.w3.org/2000/svg">
<path opacity="0.964" fill-rule="evenodd" clip-rule="evenodd" d="M253.7 0C281.642 0.775877 297.076 15.0465 300 42.8118C299.675 52.244 296.821 60.8061 291.438 68.4989C247.375 113.196 203.083 157.699 158.563 202.008C157.186 203.014 155.706 203.86 154.123 204.545C135.518 209.196 116.913 213.848 98.309 218.499C90.9327 219.831 85.5416 217.189 82.1356 210.571C81.1995 207.668 80.9876 204.708 81.5014 201.691C86.1523 183.087 90.8039 164.482 95.4549 145.877C96.261 144.017 97.3183 142.326 98.6261 140.803C142.724 96.494 187.016 52.4137 231.501 8.56236C238.262 3.88027 245.662 1.02615 253.7 0ZM254.334 27.907C267.865 28.121 273.467 34.8863 271.142 48.2029C270.508 49.26 269.873 50.3171 269.239 51.3742C226.639 93.9748 184.039 136.575 141.438 179.175C132.361 181.497 123.27 183.717 114.165 185.835C116.283 176.73 118.503 167.639 120.825 158.562C163.637 115.75 206.448 72.9386 249.26 30.1268C250.946 29.1894 252.638 28.4495 254.334 27.907Z" fill=""/>
<path opacity="0.987" fill-rule="evenodd" clip-rule="evenodd" d="M33.6152 29.1754C68.9226 29.0697 104.229 29.1754 139.535 29.4925C145.816 31.6896 148.987 36.1293 149.049 42.8117C148.783 49.6311 145.4 54.0709 138.901 56.131C105.497 56.3422 72.0932 56.554 38.6892 56.7652C32.0172 58.5741 28.3174 62.9079 27.5899 69.7673C27.167 132.769 27.167 195.772 27.5899 258.774C28.2451 266.829 32.5792 271.374 40.592 272.41C103.806 272.833 167.019 272.833 230.232 272.41C237.092 271.682 241.426 267.983 243.235 261.311C243.446 227.907 243.658 194.503 243.869 161.099C246.669 152.666 252.483 149.388 261.311 151.268C266.068 152.643 269.133 155.708 270.507 160.465C270.93 195.772 270.93 231.078 270.507 266.385C266.218 284.971 254.696 296.07 235.941 299.683C168.921 300.106 101.903 300.106 34.8837 299.683C15.7505 295.771 4.22836 284.249 0.31714 265.116C-0.105713 198.097 -0.105713 131.078 0.31714 64.0591C3.77012 45.0682 14.8695 33.4403 33.6152 29.1754Z" fill=""/>
</svg>
