<svg width="300" height="300" viewBox="0 0 300 300" fill="none" xmlns="http://www.w3.org/2000/svg">
<path opacity="0.977" fill-rule="evenodd" clip-rule="evenodd" d="M61.5234 0C84.375 0 107.227 0 130.078 0C140.158 4.73677 142.795 12.1587 137.988 22.2656C135.463 25.7284 132.046 27.7792 127.734 28.418C106.25 28.6133 84.7658 28.8086 63.2812 29.0039C44.4336 33.0078 33.0078 44.4336 29.0039 63.2812C28.6133 121.094 28.6133 178.906 29.0039 236.719C33.0078 255.567 44.4336 266.992 63.2812 270.996C121.094 271.387 178.906 271.387 236.719 270.996C255.567 266.992 266.992 255.567 270.996 236.719C271.191 215.234 271.387 193.75 271.582 172.266C274.085 162.27 280.433 158.266 290.625 160.254C295.082 162.268 298.207 165.491 300 169.922C300 192.969 300 216.016 300 239.062C293.481 273.51 272.974 293.823 238.477 300C179.492 300 120.508 300 61.5234 300C27.0261 293.823 6.51832 273.51 0 239.062C0 179.688 0 120.312 0 60.9375C6.51832 26.4895 27.0261 6.17695 61.5234 0Z" fill=""/>
<path opacity="0.988" fill-rule="evenodd" clip-rule="evenodd" d="M193.945 0C225.977 0 258.007 0 290.039 0C294.726 1.95312 298.047 5.27344 300 9.96094C300 41.9922 300 74.0232 300 106.055C294.919 116.048 287.302 118.49 277.148 113.379C275.237 111.86 273.772 110.004 272.754 107.812C271.984 88.1215 271.594 68.3947 271.582 48.6328C233.789 86.4258 195.996 124.219 158.203 162.012C148.422 166.817 141.098 164.375 136.23 154.688C134.913 150.142 135.498 145.845 137.988 141.797C175.781 104.004 213.574 66.2109 251.367 28.418C232.226 28.2227 213.086 28.0273 193.945 27.832C183.645 22.9073 181.203 15.3878 186.621 5.27344C188.554 2.7058 190.996 0.947988 193.945 0Z" fill=""/>
</svg>
