
<svg width="270" height="300" viewBox="0 0 270 300" fill="none" xmlns="http://www.w3.org/2000/svg">
<path opacity="0.978" fill-rule="evenodd" clip-rule="evenodd" d="M122.547 0.304093C166.646 -2.50764 201.02 14.1792 225.672 50.3647C233.978 64.16 239.096 79.0674 241.024 95.0854C241.048 125.808 241.492 156.512 242.359 187.197C242.875 189.566 243.765 191.79 245.028 193.872C251.984 204.001 259.104 214.013 266.388 223.908C271.858 235.726 269.521 245.627 259.379 253.611C257.455 254.684 255.453 255.574 253.372 256.28C231.342 256.392 209.315 256.726 187.292 257.282C179.721 283.755 162.145 297.995 134.561 300C106.978 297.995 89.4015 283.755 81.831 257.282C59.8077 256.726 37.781 256.392 15.751 256.28C2.98532 251.292 -2.02074 242.059 0.732858 228.58C1.40033 227.023 2.06781 225.465 2.73528 223.908C10.019 214.013 17.1386 204.001 24.0945 193.872C25.358 191.79 26.248 189.566 26.7644 187.197C27.6305 156.512 28.0755 125.808 28.0993 95.0854C35.2706 48.9823 60.9684 18.6122 105.193 3.9752C111.024 2.52071 116.809 1.29703 122.547 0.304093ZM133.894 21.6633C175.297 24.0362 202.775 44.7279 216.327 83.7384C217.559 88.1203 218.45 92.5697 218.997 97.0878C219.628 129.142 220.296 161.181 220.999 193.204C222.5 198.43 224.725 203.325 227.674 207.889C234.015 216.899 240.356 225.91 246.697 234.921C171.94 235.366 97.1829 235.366 22.4258 234.921C29.1296 225.185 35.9154 215.506 42.7837 205.886C45.1199 201.883 46.9 197.656 48.1235 193.204C48.827 161.181 49.4945 129.142 50.1259 97.0878C54.4238 68.7763 68.7745 47.3056 93.178 32.6766C105.974 25.7731 119.545 22.102 133.894 21.6633ZM105.193 256.614C124.777 256.392 144.356 256.614 163.93 257.282C156.304 273.555 143.622 279.896 125.884 276.305C115.815 273.021 108.918 266.457 105.193 256.614Z" fill=""/>
</svg>
